<mxfile host="app.diagrams.net" modified="2020-11-08T05:49:49.626Z" agent="5.0 (Windows NT 10.0; Win64; x64) AppleWebKit/537.36 (KHTML, like Gecko) Chrome/86.0.4240.183 Safari/537.36 Edg/86.0.622.63" etag="cL1-wzsrexxDSzNcR6a4" version="13.9.2" type="gitlab" pages="6">
  <diagram id="42hmpi9smcqryP4wMvOb" name="System Architecture">
    <mxGraphModel dx="1662" dy="794" grid="1" gridSize="10" guides="1" tooltips="1" connect="1" arrows="1" fold="1" page="1" pageScale="1" pageWidth="1169" pageHeight="827" math="0" shadow="0">
      <root>
        <mxCell id="m0zpFN_349LRXy_pLj0v-0" />
        <mxCell id="m0zpFN_349LRXy_pLj0v-1" parent="m0zpFN_349LRXy_pLj0v-0" />
        <mxCell id="pe0ir9CM7b8FxBTM7-n--1" value="" style="aspect=fixed;pointerEvents=1;shadow=0;dashed=0;html=1;strokeColor=#666666;labelPosition=center;verticalLabelPosition=bottom;verticalAlign=top;align=center;fillColor=#f5f5f5;shape=mxgraph.azure.computer;fontColor=#333333;strokeWidth=1;" parent="m0zpFN_349LRXy_pLj0v-1" vertex="1">
          <mxGeometry x="320" y="120" width="222.22" height="200" as="geometry" />
        </mxCell>
        <mxCell id="pe0ir9CM7b8FxBTM7-n--5" value="Proposed ITDP Management System&amp;nbsp;" style="text;html=1;align=center;verticalAlign=middle;resizable=0;points=[];autosize=1;" parent="m0zpFN_349LRXy_pLj0v-1" vertex="1">
          <mxGeometry x="320" y="330" width="220" height="20" as="geometry" />
        </mxCell>
        <mxCell id="pe0ir9CM7b8FxBTM7-n--7" value="" style="group" parent="m0zpFN_349LRXy_pLj0v-1" vertex="1" connectable="0">
          <mxGeometry x="690" y="220" width="110" height="100" as="geometry" />
        </mxCell>
        <mxCell id="pe0ir9CM7b8FxBTM7-n--2" value="" style="shape=actor;whiteSpace=wrap;html=1;strokeWidth=1;" parent="pe0ir9CM7b8FxBTM7-n--7" vertex="1">
          <mxGeometry x="20" width="70" height="80" as="geometry" />
        </mxCell>
        <mxCell id="pe0ir9CM7b8FxBTM7-n--6" value="ITDP Participants" style="text;html=1;align=center;verticalAlign=middle;resizable=0;points=[];autosize=1;" parent="pe0ir9CM7b8FxBTM7-n--7" vertex="1">
          <mxGeometry y="80" width="110" height="20" as="geometry" />
        </mxCell>
        <mxCell id="pe0ir9CM7b8FxBTM7-n--9" value="" style="group" parent="m0zpFN_349LRXy_pLj0v-1" vertex="1" connectable="0">
          <mxGeometry x="680" y="40" width="130" height="100" as="geometry" />
        </mxCell>
        <mxCell id="pe0ir9CM7b8FxBTM7-n--4" value="" style="shape=actor;whiteSpace=wrap;html=1;strokeWidth=1;" parent="pe0ir9CM7b8FxBTM7-n--9" vertex="1">
          <mxGeometry x="35" width="70" height="80" as="geometry" />
        </mxCell>
        <mxCell id="pe0ir9CM7b8FxBTM7-n--8" value="ITDP Committee Lead" style="text;html=1;align=center;verticalAlign=middle;resizable=0;points=[];autosize=1;" parent="pe0ir9CM7b8FxBTM7-n--9" vertex="1">
          <mxGeometry y="80" width="130" height="20" as="geometry" />
        </mxCell>
        <mxCell id="pe0ir9CM7b8FxBTM7-n--11" value="" style="group" parent="m0zpFN_349LRXy_pLj0v-1" vertex="1" connectable="0">
          <mxGeometry x="100" y="160" width="140" height="100" as="geometry" />
        </mxCell>
        <mxCell id="pe0ir9CM7b8FxBTM7-n--3" value="" style="shape=actor;whiteSpace=wrap;html=1;strokeWidth=1;" parent="pe0ir9CM7b8FxBTM7-n--11" vertex="1">
          <mxGeometry x="35" width="70" height="80" as="geometry" />
        </mxCell>
        <mxCell id="pe0ir9CM7b8FxBTM7-n--10" value="ITDP Program Manager" style="text;html=1;align=center;verticalAlign=middle;resizable=0;points=[];autosize=1;" parent="pe0ir9CM7b8FxBTM7-n--11" vertex="1">
          <mxGeometry y="80" width="140" height="20" as="geometry" />
        </mxCell>
        <mxCell id="pe0ir9CM7b8FxBTM7-n--12" value="" style="endArrow=classic;html=1;exitX=1;exitY=0.75;exitDx=0;exitDy=0;entryX=0;entryY=0.5;entryDx=0;entryDy=0;entryPerimeter=0;" parent="m0zpFN_349LRXy_pLj0v-1" source="pe0ir9CM7b8FxBTM7-n--3" target="pe0ir9CM7b8FxBTM7-n--1" edge="1">
          <mxGeometry width="50" height="50" relative="1" as="geometry">
            <mxPoint x="420" y="280" as="sourcePoint" />
            <mxPoint x="470" y="230" as="targetPoint" />
          </mxGeometry>
        </mxCell>
        <mxCell id="pe0ir9CM7b8FxBTM7-n--13" value="" style="endArrow=classic;html=1;exitX=0;exitY=0.75;exitDx=0;exitDy=0;entryX=1;entryY=0.5;entryDx=0;entryDy=0;entryPerimeter=0;" parent="m0zpFN_349LRXy_pLj0v-1" source="pe0ir9CM7b8FxBTM7-n--2" target="pe0ir9CM7b8FxBTM7-n--1" edge="1">
          <mxGeometry width="50" height="50" relative="1" as="geometry">
            <mxPoint x="420" y="280" as="sourcePoint" />
            <mxPoint x="470" y="230" as="targetPoint" />
          </mxGeometry>
        </mxCell>
        <mxCell id="pe0ir9CM7b8FxBTM7-n--14" value="" style="endArrow=classic;html=1;exitX=0;exitY=0.75;exitDx=0;exitDy=0;entryX=1.017;entryY=0.24;entryDx=0;entryDy=0;entryPerimeter=0;" parent="m0zpFN_349LRXy_pLj0v-1" source="pe0ir9CM7b8FxBTM7-n--4" target="pe0ir9CM7b8FxBTM7-n--1" edge="1">
          <mxGeometry width="50" height="50" relative="1" as="geometry">
            <mxPoint x="420" y="280" as="sourcePoint" />
            <mxPoint x="470" y="230" as="targetPoint" />
          </mxGeometry>
        </mxCell>
        <mxCell id="pe0ir9CM7b8FxBTM7-n--17" value="" style="group" parent="m0zpFN_349LRXy_pLj0v-1" vertex="1" connectable="0">
          <mxGeometry x="130" y="370" width="70" height="80" as="geometry" />
        </mxCell>
        <mxCell id="pe0ir9CM7b8FxBTM7-n--15" value="" style="strokeWidth=1;html=1;shape=mxgraph.flowchart.database;whiteSpace=wrap;" parent="pe0ir9CM7b8FxBTM7-n--17" vertex="1">
          <mxGeometry x="5" width="60" height="60" as="geometry" />
        </mxCell>
        <mxCell id="pe0ir9CM7b8FxBTM7-n--16" value="Database" style="text;html=1;align=center;verticalAlign=middle;resizable=0;points=[];autosize=1;" parent="pe0ir9CM7b8FxBTM7-n--17" vertex="1">
          <mxGeometry y="60" width="70" height="20" as="geometry" />
        </mxCell>
        <mxCell id="pe0ir9CM7b8FxBTM7-n--18" value="" style="endArrow=classic;html=1;entryX=0;entryY=0.85;entryDx=0;entryDy=0;entryPerimeter=0;" parent="m0zpFN_349LRXy_pLj0v-1" target="pe0ir9CM7b8FxBTM7-n--1" edge="1">
          <mxGeometry width="50" height="50" relative="1" as="geometry">
            <mxPoint x="220" y="390" as="sourcePoint" />
            <mxPoint x="470" y="230" as="targetPoint" />
          </mxGeometry>
        </mxCell>
        <mxCell id="pe0ir9CM7b8FxBTM7-n--19" value="" style="endArrow=classic;html=1;exitX=-0.009;exitY=0.8;exitDx=0;exitDy=0;exitPerimeter=0;" parent="m0zpFN_349LRXy_pLj0v-1" source="pe0ir9CM7b8FxBTM7-n--1" edge="1">
          <mxGeometry width="50" height="50" relative="1" as="geometry">
            <mxPoint x="420" y="280" as="sourcePoint" />
            <mxPoint x="210" y="380" as="targetPoint" />
          </mxGeometry>
        </mxCell>
      </root>
    </mxGraphModel>
  </diagram>
  <diagram id="C5RBs43oDa-KdzZeNtuy" name="ERD - Complete">
    <mxGraphModel dx="1955" dy="934" grid="1" gridSize="10" guides="1" tooltips="1" connect="1" arrows="1" fold="1" page="1" pageScale="1" pageWidth="1169" pageHeight="827" math="0" shadow="0">
      <root>
        <mxCell id="WIyWlLk6GJQsqaUBKTNV-0" />
        <mxCell id="WIyWlLk6GJQsqaUBKTNV-1" parent="WIyWlLk6GJQsqaUBKTNV-0" />
        <mxCell id="KlAbz1R63R00csABtgRf-16" value="Events" style="swimlane;fontStyle=0;childLayout=stackLayout;horizontal=1;startSize=26;fillColor=none;horizontalStack=0;resizeParent=1;resizeParentMax=0;resizeLast=0;collapsible=1;marginBottom=0;" parent="WIyWlLk6GJQsqaUBKTNV-1" vertex="1">
          <mxGeometry x="280" y="40" width="210" height="390" as="geometry" />
        </mxCell>
        <mxCell id="KlAbz1R63R00csABtgRf-17" value="Event_ID - PK" style="text;strokeColor=none;fillColor=none;align=left;verticalAlign=top;spacingLeft=4;spacingRight=4;overflow=hidden;rotatable=0;points=[[0,0.5],[1,0.5]];portConstraint=eastwest;" parent="KlAbz1R63R00csABtgRf-16" vertex="1">
          <mxGeometry y="26" width="210" height="26" as="geometry" />
        </mxCell>
        <mxCell id="KlAbz1R63R00csABtgRf-18" value="Event_Status_Code - FK" style="text;strokeColor=none;fillColor=none;align=left;verticalAlign=top;spacingLeft=4;spacingRight=4;overflow=hidden;rotatable=0;points=[[0,0.5],[1,0.5]];portConstraint=eastwest;" parent="KlAbz1R63R00csABtgRf-16" vertex="1">
          <mxGeometry y="52" width="210" height="26" as="geometry" />
        </mxCell>
        <mxCell id="KlAbz1R63R00csABtgRf-56" value="Event_Type_Code - FK" style="text;strokeColor=none;fillColor=none;align=left;verticalAlign=top;spacingLeft=4;spacingRight=4;overflow=hidden;rotatable=0;points=[[0,0.5],[1,0.5]];portConstraint=eastwest;" parent="KlAbz1R63R00csABtgRf-16" vertex="1">
          <mxGeometry y="78" width="210" height="26" as="geometry" />
        </mxCell>
        <mxCell id="KlAbz1R63R00csABtgRf-19" value="Free_or_Commercial_Code - FK" style="text;strokeColor=none;fillColor=none;align=left;verticalAlign=top;spacingLeft=4;spacingRight=4;overflow=hidden;rotatable=0;points=[[0,0.5],[1,0.5]];portConstraint=eastwest;" parent="KlAbz1R63R00csABtgRf-16" vertex="1">
          <mxGeometry y="104" width="210" height="26" as="geometry" />
        </mxCell>
        <mxCell id="KlAbz1R63R00csABtgRf-20" value="Organizer_ID - FK" style="text;strokeColor=none;fillColor=none;align=left;verticalAlign=top;spacingLeft=4;spacingRight=4;overflow=hidden;rotatable=0;points=[[0,0.5],[1,0.5]];portConstraint=eastwest;" parent="KlAbz1R63R00csABtgRf-16" vertex="1">
          <mxGeometry y="130" width="210" height="26" as="geometry" />
        </mxCell>
        <mxCell id="KlAbz1R63R00csABtgRf-21" value="Venue_ID - FK" style="text;strokeColor=none;fillColor=none;align=left;verticalAlign=top;spacingLeft=4;spacingRight=4;overflow=hidden;rotatable=0;points=[[0,0.5],[1,0.5]];portConstraint=eastwest;" parent="KlAbz1R63R00csABtgRf-16" vertex="1">
          <mxGeometry y="156" width="210" height="26" as="geometry" />
        </mxCell>
        <mxCell id="KlAbz1R63R00csABtgRf-22" value="Event_Start_Date" style="text;strokeColor=none;fillColor=none;align=left;verticalAlign=top;spacingLeft=4;spacingRight=4;overflow=hidden;rotatable=0;points=[[0,0.5],[1,0.5]];portConstraint=eastwest;" parent="KlAbz1R63R00csABtgRf-16" vertex="1">
          <mxGeometry y="182" width="210" height="26" as="geometry" />
        </mxCell>
        <mxCell id="KlAbz1R63R00csABtgRf-23" value="Event_End_Date" style="text;strokeColor=none;fillColor=none;align=left;verticalAlign=top;spacingLeft=4;spacingRight=4;overflow=hidden;rotatable=0;points=[[0,0.5],[1,0.5]];portConstraint=eastwest;" parent="KlAbz1R63R00csABtgRf-16" vertex="1">
          <mxGeometry y="208" width="210" height="26" as="geometry" />
        </mxCell>
        <mxCell id="KlAbz1R63R00csABtgRf-24" value="Number_of_Participants" style="text;strokeColor=none;fillColor=none;align=left;verticalAlign=top;spacingLeft=4;spacingRight=4;overflow=hidden;rotatable=0;points=[[0,0.5],[1,0.5]];portConstraint=eastwest;" parent="KlAbz1R63R00csABtgRf-16" vertex="1">
          <mxGeometry y="234" width="210" height="26" as="geometry" />
        </mxCell>
        <mxCell id="KlAbz1R63R00csABtgRf-25" value="Discount" style="text;strokeColor=none;fillColor=none;align=left;verticalAlign=top;spacingLeft=4;spacingRight=4;overflow=hidden;rotatable=0;points=[[0,0.5],[1,0.5]];portConstraint=eastwest;" parent="KlAbz1R63R00csABtgRf-16" vertex="1">
          <mxGeometry y="260" width="210" height="26" as="geometry" />
        </mxCell>
        <mxCell id="KlAbz1R63R00csABtgRf-26" value="Amount_Paid" style="text;strokeColor=none;fillColor=none;align=left;verticalAlign=top;spacingLeft=4;spacingRight=4;overflow=hidden;rotatable=0;points=[[0,0.5],[1,0.5]];portConstraint=eastwest;" parent="KlAbz1R63R00csABtgRf-16" vertex="1">
          <mxGeometry y="286" width="210" height="26" as="geometry" />
        </mxCell>
        <mxCell id="KlAbz1R63R00csABtgRf-27" value="Total_Cost" style="text;strokeColor=none;fillColor=none;align=left;verticalAlign=top;spacingLeft=4;spacingRight=4;overflow=hidden;rotatable=0;points=[[0,0.5],[1,0.5]];portConstraint=eastwest;" parent="KlAbz1R63R00csABtgRf-16" vertex="1">
          <mxGeometry y="312" width="210" height="26" as="geometry" />
        </mxCell>
        <mxCell id="KlAbz1R63R00csABtgRf-28" value="Comments" style="text;strokeColor=none;fillColor=none;align=left;verticalAlign=top;spacingLeft=4;spacingRight=4;overflow=hidden;rotatable=0;points=[[0,0.5],[1,0.5]];portConstraint=eastwest;" parent="KlAbz1R63R00csABtgRf-16" vertex="1">
          <mxGeometry y="338" width="210" height="26" as="geometry" />
        </mxCell>
        <mxCell id="KlAbz1R63R00csABtgRf-29" value="Other_Details" style="text;strokeColor=none;fillColor=none;align=left;verticalAlign=top;spacingLeft=4;spacingRight=4;overflow=hidden;rotatable=0;points=[[0,0.5],[1,0.5]];portConstraint=eastwest;" parent="KlAbz1R63R00csABtgRf-16" vertex="1">
          <mxGeometry y="364" width="210" height="26" as="geometry" />
        </mxCell>
        <mxCell id="KlAbz1R63R00csABtgRf-30" value="Organizer" style="swimlane;fontStyle=0;childLayout=stackLayout;horizontal=1;startSize=26;fillColor=none;horizontalStack=0;resizeParent=1;resizeParentMax=0;resizeLast=0;collapsible=1;marginBottom=0;" parent="WIyWlLk6GJQsqaUBKTNV-1" vertex="1">
          <mxGeometry x="20" y="30" width="176" height="130" as="geometry" />
        </mxCell>
        <mxCell id="KlAbz1R63R00csABtgRf-31" value="Organizer_ID - PK" style="text;strokeColor=none;fillColor=none;align=left;verticalAlign=top;spacingLeft=4;spacingRight=4;overflow=hidden;rotatable=0;points=[[0,0.5],[1,0.5]];portConstraint=eastwest;" parent="KlAbz1R63R00csABtgRf-30" vertex="1">
          <mxGeometry y="26" width="176" height="26" as="geometry" />
        </mxCell>
        <mxCell id="KlAbz1R63R00csABtgRf-32" value="Organizer_Name" style="text;strokeColor=none;fillColor=none;align=left;verticalAlign=top;spacingLeft=4;spacingRight=4;overflow=hidden;rotatable=0;points=[[0,0.5],[1,0.5]];portConstraint=eastwest;" parent="KlAbz1R63R00csABtgRf-30" vertex="1">
          <mxGeometry y="52" width="176" height="26" as="geometry" />
        </mxCell>
        <mxCell id="KlAbz1R63R00csABtgRf-33" value="Email_Address" style="text;strokeColor=none;fillColor=none;align=left;verticalAlign=top;spacingLeft=4;spacingRight=4;overflow=hidden;rotatable=0;points=[[0,0.5],[1,0.5]];portConstraint=eastwest;" parent="KlAbz1R63R00csABtgRf-30" vertex="1">
          <mxGeometry y="78" width="176" height="26" as="geometry" />
        </mxCell>
        <mxCell id="KlAbz1R63R00csABtgRf-34" value="Other_Details" style="text;strokeColor=none;fillColor=none;align=left;verticalAlign=top;spacingLeft=4;spacingRight=4;overflow=hidden;rotatable=0;points=[[0,0.5],[1,0.5]];portConstraint=eastwest;" parent="KlAbz1R63R00csABtgRf-30" vertex="1">
          <mxGeometry y="104" width="176" height="26" as="geometry" />
        </mxCell>
        <mxCell id="KlAbz1R63R00csABtgRf-44" value="Attendance" style="swimlane;fontStyle=0;childLayout=stackLayout;horizontal=1;startSize=26;fillColor=none;horizontalStack=0;resizeParent=1;resizeParentMax=0;resizeLast=0;collapsible=1;marginBottom=0;" parent="WIyWlLk6GJQsqaUBKTNV-1" vertex="1">
          <mxGeometry x="980" y="120" width="176" height="156" as="geometry" />
        </mxCell>
        <mxCell id="KlAbz1R63R00csABtgRf-45" value="Attendance_ID - PK" style="text;strokeColor=none;fillColor=none;align=left;verticalAlign=top;spacingLeft=4;spacingRight=4;overflow=hidden;rotatable=0;points=[[0,0.5],[1,0.5]];portConstraint=eastwest;" parent="KlAbz1R63R00csABtgRf-44" vertex="1">
          <mxGeometry y="26" width="176" height="26" as="geometry" />
        </mxCell>
        <mxCell id="KlAbz1R63R00csABtgRf-46" value="Lesson_ID - FK" style="text;strokeColor=none;fillColor=none;align=left;verticalAlign=top;spacingLeft=4;spacingRight=4;overflow=hidden;rotatable=0;points=[[0,0.5],[1,0.5]];portConstraint=eastwest;" parent="KlAbz1R63R00csABtgRf-44" vertex="1">
          <mxGeometry y="52" width="176" height="26" as="geometry" />
        </mxCell>
        <mxCell id="KlAbz1R63R00csABtgRf-47" value="User_ID - FK" style="text;strokeColor=none;fillColor=none;align=left;verticalAlign=top;spacingLeft=4;spacingRight=4;overflow=hidden;rotatable=0;points=[[0,0.5],[1,0.5]];portConstraint=eastwest;" parent="KlAbz1R63R00csABtgRf-44" vertex="1">
          <mxGeometry y="78" width="176" height="26" as="geometry" />
        </mxCell>
        <mxCell id="KlAbz1R63R00csABtgRf-128" value="Attendance_Status_Code - FK" style="text;strokeColor=none;fillColor=none;align=left;verticalAlign=top;spacingLeft=4;spacingRight=4;overflow=hidden;rotatable=0;points=[[0,0.5],[1,0.5]];portConstraint=eastwest;" parent="KlAbz1R63R00csABtgRf-44" vertex="1">
          <mxGeometry y="104" width="176" height="26" as="geometry" />
        </mxCell>
        <mxCell id="KlAbz1R63R00csABtgRf-49" value="Feedback" style="text;strokeColor=none;fillColor=none;align=left;verticalAlign=top;spacingLeft=4;spacingRight=4;overflow=hidden;rotatable=0;points=[[0,0.5],[1,0.5]];portConstraint=eastwest;" parent="KlAbz1R63R00csABtgRf-44" vertex="1">
          <mxGeometry y="130" width="176" height="26" as="geometry" />
        </mxCell>
        <mxCell id="KlAbz1R63R00csABtgRf-58" value="Ref_Event_Status" style="swimlane;fontStyle=0;childLayout=stackLayout;horizontal=1;startSize=26;fillColor=none;horizontalStack=0;resizeParent=1;resizeParentMax=0;resizeLast=0;collapsible=1;marginBottom=0;" parent="WIyWlLk6GJQsqaUBKTNV-1" vertex="1">
          <mxGeometry x="20" y="178" width="176" height="78" as="geometry" />
        </mxCell>
        <mxCell id="KlAbz1R63R00csABtgRf-59" value="Event_Status_Code - PK" style="text;strokeColor=none;fillColor=none;align=left;verticalAlign=top;spacingLeft=4;spacingRight=4;overflow=hidden;rotatable=0;points=[[0,0.5],[1,0.5]];portConstraint=eastwest;" parent="KlAbz1R63R00csABtgRf-58" vertex="1">
          <mxGeometry y="26" width="176" height="26" as="geometry" />
        </mxCell>
        <mxCell id="KlAbz1R63R00csABtgRf-60" value="Event_Status_Description" style="text;strokeColor=none;fillColor=none;align=left;verticalAlign=top;spacingLeft=4;spacingRight=4;overflow=hidden;rotatable=0;points=[[0,0.5],[1,0.5]];portConstraint=eastwest;" parent="KlAbz1R63R00csABtgRf-58" vertex="1">
          <mxGeometry y="52" width="176" height="26" as="geometry" />
        </mxCell>
        <mxCell id="KlAbz1R63R00csABtgRf-63" value="Ref_Event_Types" style="swimlane;fontStyle=0;childLayout=stackLayout;horizontal=1;startSize=26;fillColor=none;horizontalStack=0;resizeParent=1;resizeParentMax=0;resizeLast=0;collapsible=1;marginBottom=0;" parent="WIyWlLk6GJQsqaUBKTNV-1" vertex="1">
          <mxGeometry x="20" y="298" width="176" height="78" as="geometry" />
        </mxCell>
        <mxCell id="KlAbz1R63R00csABtgRf-64" value="Event_Type_Code - PK" style="text;strokeColor=none;fillColor=none;align=left;verticalAlign=top;spacingLeft=4;spacingRight=4;overflow=hidden;rotatable=0;points=[[0,0.5],[1,0.5]];portConstraint=eastwest;" parent="KlAbz1R63R00csABtgRf-63" vertex="1">
          <mxGeometry y="26" width="176" height="26" as="geometry" />
        </mxCell>
        <mxCell id="KlAbz1R63R00csABtgRf-65" value="Event_Type_Description" style="text;strokeColor=none;fillColor=none;align=left;verticalAlign=top;spacingLeft=4;spacingRight=4;overflow=hidden;rotatable=0;points=[[0,0.5],[1,0.5]];portConstraint=eastwest;" parent="KlAbz1R63R00csABtgRf-63" vertex="1">
          <mxGeometry y="52" width="176" height="26" as="geometry" />
        </mxCell>
        <mxCell id="KlAbz1R63R00csABtgRf-66" value="Ref_Free_or_Commercial" style="swimlane;fontStyle=0;childLayout=stackLayout;horizontal=1;startSize=26;fillColor=none;horizontalStack=0;resizeParent=1;resizeParentMax=0;resizeLast=0;collapsible=1;marginBottom=0;" parent="WIyWlLk6GJQsqaUBKTNV-1" vertex="1">
          <mxGeometry x="8" y="414" width="200" height="78" as="geometry" />
        </mxCell>
        <mxCell id="KlAbz1R63R00csABtgRf-67" value="Free_or_Commercial_Code - PK" style="text;strokeColor=none;fillColor=none;align=left;verticalAlign=top;spacingLeft=4;spacingRight=4;overflow=hidden;rotatable=0;points=[[0,0.5],[1,0.5]];portConstraint=eastwest;" parent="KlAbz1R63R00csABtgRf-66" vertex="1">
          <mxGeometry y="26" width="200" height="26" as="geometry" />
        </mxCell>
        <mxCell id="KlAbz1R63R00csABtgRf-68" value="FOC_Description" style="text;strokeColor=none;fillColor=none;align=left;verticalAlign=top;spacingLeft=4;spacingRight=4;overflow=hidden;rotatable=0;points=[[0,0.5],[1,0.5]];portConstraint=eastwest;" parent="KlAbz1R63R00csABtgRf-66" vertex="1">
          <mxGeometry y="52" width="200" height="26" as="geometry" />
        </mxCell>
        <mxCell id="KlAbz1R63R00csABtgRf-115" value="User" style="swimlane;fontStyle=0;childLayout=stackLayout;horizontal=1;startSize=26;fillColor=none;horizontalStack=0;resizeParent=1;resizeParentMax=0;resizeLast=0;collapsible=1;marginBottom=0;" parent="WIyWlLk6GJQsqaUBKTNV-1" vertex="1">
          <mxGeometry x="720" y="376" width="176" height="234" as="geometry" />
        </mxCell>
        <mxCell id="KlAbz1R63R00csABtgRf-116" value="User_ID - PK" style="text;strokeColor=none;fillColor=none;align=left;verticalAlign=top;spacingLeft=4;spacingRight=4;overflow=hidden;rotatable=0;points=[[0,0.5],[1,0.5]];portConstraint=eastwest;" parent="KlAbz1R63R00csABtgRf-115" vertex="1">
          <mxGeometry y="26" width="176" height="26" as="geometry" />
        </mxCell>
        <mxCell id="KlAbz1R63R00csABtgRf-117" value="User_Name" style="text;strokeColor=none;fillColor=none;align=left;verticalAlign=top;spacingLeft=4;spacingRight=4;overflow=hidden;rotatable=0;points=[[0,0.5],[1,0.5]];portConstraint=eastwest;" parent="KlAbz1R63R00csABtgRf-115" vertex="1">
          <mxGeometry y="52" width="176" height="26" as="geometry" />
        </mxCell>
        <mxCell id="KlAbz1R63R00csABtgRf-118" value="User_First_Name" style="text;strokeColor=none;fillColor=none;align=left;verticalAlign=top;spacingLeft=4;spacingRight=4;overflow=hidden;rotatable=0;points=[[0,0.5],[1,0.5]];portConstraint=eastwest;" parent="KlAbz1R63R00csABtgRf-115" vertex="1">
          <mxGeometry y="78" width="176" height="26" as="geometry" />
        </mxCell>
        <mxCell id="KlAbz1R63R00csABtgRf-119" value="User_Last_Name" style="text;strokeColor=none;fillColor=none;align=left;verticalAlign=top;spacingLeft=4;spacingRight=4;overflow=hidden;rotatable=0;points=[[0,0.5],[1,0.5]];portConstraint=eastwest;" parent="KlAbz1R63R00csABtgRf-115" vertex="1">
          <mxGeometry y="104" width="176" height="26" as="geometry" />
        </mxCell>
        <mxCell id="KlAbz1R63R00csABtgRf-121" value="User_Password" style="text;strokeColor=none;fillColor=none;align=left;verticalAlign=top;spacingLeft=4;spacingRight=4;overflow=hidden;rotatable=0;points=[[0,0.5],[1,0.5]];portConstraint=eastwest;" parent="KlAbz1R63R00csABtgRf-115" vertex="1">
          <mxGeometry y="130" width="176" height="26" as="geometry" />
        </mxCell>
        <mxCell id="KlAbz1R63R00csABtgRf-122" value="User_Email" style="text;strokeColor=none;fillColor=none;align=left;verticalAlign=top;spacingLeft=4;spacingRight=4;overflow=hidden;rotatable=0;points=[[0,0.5],[1,0.5]];portConstraint=eastwest;" parent="KlAbz1R63R00csABtgRf-115" vertex="1">
          <mxGeometry y="156" width="176" height="26" as="geometry" />
        </mxCell>
        <mxCell id="KlAbz1R63R00csABtgRf-125" value="User_Gender" style="text;strokeColor=none;fillColor=none;align=left;verticalAlign=top;spacingLeft=4;spacingRight=4;overflow=hidden;rotatable=0;points=[[0,0.5],[1,0.5]];portConstraint=eastwest;" parent="KlAbz1R63R00csABtgRf-115" vertex="1">
          <mxGeometry y="182" width="176" height="26" as="geometry" />
        </mxCell>
        <mxCell id="KlAbz1R63R00csABtgRf-126" value="User_Role_Code" style="text;strokeColor=none;fillColor=none;align=left;verticalAlign=top;spacingLeft=4;spacingRight=4;overflow=hidden;rotatable=0;points=[[0,0.5],[1,0.5]];portConstraint=eastwest;" parent="KlAbz1R63R00csABtgRf-115" vertex="1">
          <mxGeometry y="208" width="176" height="26" as="geometry" />
        </mxCell>
        <mxCell id="KlAbz1R63R00csABtgRf-129" value="Lesson" style="swimlane;fontStyle=0;childLayout=stackLayout;horizontal=1;startSize=26;fillColor=none;horizontalStack=0;resizeParent=1;resizeParentMax=0;resizeLast=0;collapsible=1;marginBottom=0;" parent="WIyWlLk6GJQsqaUBKTNV-1" vertex="1">
          <mxGeometry x="710" y="40" width="176" height="156" as="geometry" />
        </mxCell>
        <mxCell id="KlAbz1R63R00csABtgRf-130" value="Lesson_ID - PK" style="text;strokeColor=none;fillColor=none;align=left;verticalAlign=top;spacingLeft=4;spacingRight=4;overflow=hidden;rotatable=0;points=[[0,0.5],[1,0.5]];portConstraint=eastwest;" parent="KlAbz1R63R00csABtgRf-129" vertex="1">
          <mxGeometry y="26" width="176" height="26" as="geometry" />
        </mxCell>
        <mxCell id="KlAbz1R63R00csABtgRf-131" value="Lesson_Name" style="text;strokeColor=none;fillColor=none;align=left;verticalAlign=top;spacingLeft=4;spacingRight=4;overflow=hidden;rotatable=0;points=[[0,0.5],[1,0.5]];portConstraint=eastwest;" parent="KlAbz1R63R00csABtgRf-129" vertex="1">
          <mxGeometry y="52" width="176" height="26" as="geometry" />
        </mxCell>
        <mxCell id="KlAbz1R63R00csABtgRf-132" value="Lesson_Start_Date" style="text;strokeColor=none;fillColor=none;align=left;verticalAlign=top;spacingLeft=4;spacingRight=4;overflow=hidden;rotatable=0;points=[[0,0.5],[1,0.5]];portConstraint=eastwest;" parent="KlAbz1R63R00csABtgRf-129" vertex="1">
          <mxGeometry y="78" width="176" height="26" as="geometry" />
        </mxCell>
        <mxCell id="KlAbz1R63R00csABtgRf-133" value="Lesson_End_Date" style="text;strokeColor=none;fillColor=none;align=left;verticalAlign=top;spacingLeft=4;spacingRight=4;overflow=hidden;rotatable=0;points=[[0,0.5],[1,0.5]];portConstraint=eastwest;" parent="KlAbz1R63R00csABtgRf-129" vertex="1">
          <mxGeometry y="104" width="176" height="26" as="geometry" />
        </mxCell>
        <mxCell id="KlAbz1R63R00csABtgRf-135" value="Event_ID -  FK" style="text;strokeColor=none;fillColor=none;align=left;verticalAlign=top;spacingLeft=4;spacingRight=4;overflow=hidden;rotatable=0;points=[[0,0.5],[1,0.5]];portConstraint=eastwest;" parent="KlAbz1R63R00csABtgRf-129" vertex="1">
          <mxGeometry y="130" width="176" height="26" as="geometry" />
        </mxCell>
        <mxCell id="87O5IwvxzU_OMoR7_8M6-0" value="Ref_Attendance_Status" style="swimlane;fontStyle=0;childLayout=stackLayout;horizontal=1;startSize=26;fillColor=none;horizontalStack=0;resizeParent=1;resizeParentMax=0;resizeLast=0;collapsible=1;marginBottom=0;" vertex="1" parent="WIyWlLk6GJQsqaUBKTNV-1">
          <mxGeometry x="710" y="230" width="176" height="104" as="geometry" />
        </mxCell>
        <mxCell id="87O5IwvxzU_OMoR7_8M6-1" value="Attendance_Status_Code - PK" style="text;strokeColor=none;fillColor=none;align=left;verticalAlign=top;spacingLeft=4;spacingRight=4;overflow=hidden;rotatable=0;points=[[0,0.5],[1,0.5]];portConstraint=eastwest;" vertex="1" parent="87O5IwvxzU_OMoR7_8M6-0">
          <mxGeometry y="26" width="176" height="26" as="geometry" />
        </mxCell>
        <mxCell id="87O5IwvxzU_OMoR7_8M6-2" value="Attendance_Status_Name" style="text;strokeColor=none;fillColor=none;align=left;verticalAlign=top;spacingLeft=4;spacingRight=4;overflow=hidden;rotatable=0;points=[[0,0.5],[1,0.5]];portConstraint=eastwest;" vertex="1" parent="87O5IwvxzU_OMoR7_8M6-0">
          <mxGeometry y="52" width="176" height="26" as="geometry" />
        </mxCell>
        <mxCell id="87O5IwvxzU_OMoR7_8M6-3" value="Attendance_Status_Description" style="text;strokeColor=none;fillColor=none;align=left;verticalAlign=top;spacingLeft=4;spacingRight=4;overflow=hidden;rotatable=0;points=[[0,0.5],[1,0.5]];portConstraint=eastwest;" vertex="1" parent="87O5IwvxzU_OMoR7_8M6-0">
          <mxGeometry y="78" width="176" height="26" as="geometry" />
        </mxCell>
        <mxCell id="87O5IwvxzU_OMoR7_8M6-6" value="" style="edgeStyle=entityRelationEdgeStyle;fontSize=12;html=1;endArrow=ERoneToMany;" edge="1" parent="WIyWlLk6GJQsqaUBKTNV-1" source="KlAbz1R63R00csABtgRf-30" target="KlAbz1R63R00csABtgRf-16">
          <mxGeometry width="100" height="100" relative="1" as="geometry">
            <mxPoint x="130" y="156" as="sourcePoint" />
            <mxPoint x="230" y="56" as="targetPoint" />
          </mxGeometry>
        </mxCell>
        <mxCell id="87O5IwvxzU_OMoR7_8M6-7" value="" style="edgeStyle=entityRelationEdgeStyle;fontSize=12;html=1;endArrow=ERoneToMany;" edge="1" parent="WIyWlLk6GJQsqaUBKTNV-1" source="KlAbz1R63R00csABtgRf-58" target="KlAbz1R63R00csABtgRf-16">
          <mxGeometry width="100" height="100" relative="1" as="geometry">
            <mxPoint x="200" y="423" as="sourcePoint" />
            <mxPoint x="300" y="323" as="targetPoint" />
          </mxGeometry>
        </mxCell>
        <mxCell id="87O5IwvxzU_OMoR7_8M6-8" value="" style="edgeStyle=entityRelationEdgeStyle;fontSize=12;html=1;endArrow=ERmany;" edge="1" parent="WIyWlLk6GJQsqaUBKTNV-1" source="KlAbz1R63R00csABtgRf-16" target="KlAbz1R63R00csABtgRf-129">
          <mxGeometry width="100" height="100" relative="1" as="geometry">
            <mxPoint x="630" y="450" as="sourcePoint" />
            <mxPoint x="730" y="350" as="targetPoint" />
          </mxGeometry>
        </mxCell>
        <mxCell id="87O5IwvxzU_OMoR7_8M6-9" value="" style="edgeStyle=entityRelationEdgeStyle;fontSize=12;html=1;endArrow=ERmany;" edge="1" parent="WIyWlLk6GJQsqaUBKTNV-1" source="KlAbz1R63R00csABtgRf-63" target="KlAbz1R63R00csABtgRf-16">
          <mxGeometry width="100" height="100" relative="1" as="geometry">
            <mxPoint x="220" y="380" as="sourcePoint" />
            <mxPoint x="320" y="280" as="targetPoint" />
          </mxGeometry>
        </mxCell>
        <mxCell id="87O5IwvxzU_OMoR7_8M6-10" value="" style="edgeStyle=entityRelationEdgeStyle;fontSize=12;html=1;endArrow=ERmany;entryX=0;entryY=0.5;entryDx=0;entryDy=0;" edge="1" parent="WIyWlLk6GJQsqaUBKTNV-1" source="KlAbz1R63R00csABtgRf-66" target="KlAbz1R63R00csABtgRf-22">
          <mxGeometry width="100" height="100" relative="1" as="geometry">
            <mxPoint x="196" y="450" as="sourcePoint" />
            <mxPoint x="296" y="350" as="targetPoint" />
          </mxGeometry>
        </mxCell>
        <mxCell id="87O5IwvxzU_OMoR7_8M6-15" value="" style="edgeStyle=entityRelationEdgeStyle;fontSize=12;html=1;endArrow=ERmany;" edge="1" parent="WIyWlLk6GJQsqaUBKTNV-1" source="KlAbz1R63R00csABtgRf-129" target="KlAbz1R63R00csABtgRf-44">
          <mxGeometry width="100" height="100" relative="1" as="geometry">
            <mxPoint x="800" y="120" as="sourcePoint" />
            <mxPoint x="900" y="20" as="targetPoint" />
          </mxGeometry>
        </mxCell>
        <mxCell id="87O5IwvxzU_OMoR7_8M6-17" value="" style="edgeStyle=entityRelationEdgeStyle;fontSize=12;html=1;endArrow=ERmany;" edge="1" parent="WIyWlLk6GJQsqaUBKTNV-1" source="KlAbz1R63R00csABtgRf-115" target="KlAbz1R63R00csABtgRf-44">
          <mxGeometry width="100" height="100" relative="1" as="geometry">
            <mxPoint x="770" y="398" as="sourcePoint" />
            <mxPoint x="870" y="298" as="targetPoint" />
          </mxGeometry>
        </mxCell>
        <mxCell id="87O5IwvxzU_OMoR7_8M6-18" value="" style="edgeStyle=entityRelationEdgeStyle;fontSize=12;html=1;endArrow=ERmany;" edge="1" parent="WIyWlLk6GJQsqaUBKTNV-1" source="87O5IwvxzU_OMoR7_8M6-0" target="KlAbz1R63R00csABtgRf-44">
          <mxGeometry width="100" height="100" relative="1" as="geometry">
            <mxPoint x="750" y="430" as="sourcePoint" />
            <mxPoint x="850" y="330" as="targetPoint" />
          </mxGeometry>
        </mxCell>
        <mxCell id="87O5IwvxzU_OMoR7_8M6-20" value="Ref_User_Role" style="swimlane;fontStyle=0;childLayout=stackLayout;horizontal=1;startSize=26;fillColor=none;horizontalStack=0;resizeParent=1;resizeParentMax=0;resizeLast=0;collapsible=1;marginBottom=0;" vertex="1" parent="WIyWlLk6GJQsqaUBKTNV-1">
          <mxGeometry x="500" y="370" width="176" height="104" as="geometry" />
        </mxCell>
        <mxCell id="87O5IwvxzU_OMoR7_8M6-21" value="User_Role_Code - PK" style="text;strokeColor=none;fillColor=none;align=left;verticalAlign=top;spacingLeft=4;spacingRight=4;overflow=hidden;rotatable=0;points=[[0,0.5],[1,0.5]];portConstraint=eastwest;" vertex="1" parent="87O5IwvxzU_OMoR7_8M6-20">
          <mxGeometry y="26" width="176" height="26" as="geometry" />
        </mxCell>
        <mxCell id="87O5IwvxzU_OMoR7_8M6-22" value="User_Role_Name" style="text;strokeColor=none;fillColor=none;align=left;verticalAlign=top;spacingLeft=4;spacingRight=4;overflow=hidden;rotatable=0;points=[[0,0.5],[1,0.5]];portConstraint=eastwest;" vertex="1" parent="87O5IwvxzU_OMoR7_8M6-20">
          <mxGeometry y="52" width="176" height="26" as="geometry" />
        </mxCell>
        <mxCell id="87O5IwvxzU_OMoR7_8M6-23" value="User_Role_Description" style="text;strokeColor=none;fillColor=none;align=left;verticalAlign=top;spacingLeft=4;spacingRight=4;overflow=hidden;rotatable=0;points=[[0,0.5],[1,0.5]];portConstraint=eastwest;" vertex="1" parent="87O5IwvxzU_OMoR7_8M6-20">
          <mxGeometry y="78" width="176" height="26" as="geometry" />
        </mxCell>
        <mxCell id="87O5IwvxzU_OMoR7_8M6-33" value="" style="edgeStyle=entityRelationEdgeStyle;fontSize=12;html=1;endArrow=ERmany;" edge="1" parent="WIyWlLk6GJQsqaUBKTNV-1" source="87O5IwvxzU_OMoR7_8M6-20" target="KlAbz1R63R00csABtgRf-115">
          <mxGeometry width="100" height="100" relative="1" as="geometry">
            <mxPoint x="530" y="460" as="sourcePoint" />
            <mxPoint x="630" y="360" as="targetPoint" />
          </mxGeometry>
        </mxCell>
        <mxCell id="7YU0cIqNxofq2II2RQas-0" value="Team" style="swimlane;fontStyle=0;childLayout=stackLayout;horizontal=1;startSize=26;fillColor=none;horizontalStack=0;resizeParent=1;resizeParentMax=0;resizeLast=0;collapsible=1;marginBottom=0;" vertex="1" parent="WIyWlLk6GJQsqaUBKTNV-1">
          <mxGeometry x="496" y="510" width="176" height="182" as="geometry" />
        </mxCell>
        <mxCell id="7YU0cIqNxofq2II2RQas-1" value="Team_ID" style="text;strokeColor=none;fillColor=none;align=left;verticalAlign=top;spacingLeft=4;spacingRight=4;overflow=hidden;rotatable=0;points=[[0,0.5],[1,0.5]];portConstraint=eastwest;" vertex="1" parent="7YU0cIqNxofq2II2RQas-0">
          <mxGeometry y="26" width="176" height="26" as="geometry" />
        </mxCell>
        <mxCell id="7YU0cIqNxofq2II2RQas-2" value="Team_Name" style="text;strokeColor=none;fillColor=none;align=left;verticalAlign=top;spacingLeft=4;spacingRight=4;overflow=hidden;rotatable=0;points=[[0,0.5],[1,0.5]];portConstraint=eastwest;" vertex="1" parent="7YU0cIqNxofq2II2RQas-0">
          <mxGeometry y="52" width="176" height="26" as="geometry" />
        </mxCell>
        <mxCell id="7YU0cIqNxofq2II2RQas-3" value="Committe_Lead_ID" style="text;strokeColor=none;fillColor=none;align=left;verticalAlign=top;spacingLeft=4;spacingRight=4;overflow=hidden;rotatable=0;points=[[0,0.5],[1,0.5]];portConstraint=eastwest;" vertex="1" parent="7YU0cIqNxofq2II2RQas-0">
          <mxGeometry y="78" width="176" height="26" as="geometry" />
        </mxCell>
        <mxCell id="7YU0cIqNxofq2II2RQas-4" value="Participant_ID_1" style="text;strokeColor=none;fillColor=none;align=left;verticalAlign=top;spacingLeft=4;spacingRight=4;overflow=hidden;rotatable=0;points=[[0,0.5],[1,0.5]];portConstraint=eastwest;" vertex="1" parent="7YU0cIqNxofq2II2RQas-0">
          <mxGeometry y="104" width="176" height="26" as="geometry" />
        </mxCell>
        <mxCell id="7YU0cIqNxofq2II2RQas-5" value="Participant_ID_2" style="text;strokeColor=none;fillColor=none;align=left;verticalAlign=top;spacingLeft=4;spacingRight=4;overflow=hidden;rotatable=0;points=[[0,0.5],[1,0.5]];portConstraint=eastwest;" vertex="1" parent="7YU0cIqNxofq2II2RQas-0">
          <mxGeometry y="130" width="176" height="26" as="geometry" />
        </mxCell>
        <mxCell id="7YU0cIqNxofq2II2RQas-6" value="Participant_ID_3" style="text;strokeColor=none;fillColor=none;align=left;verticalAlign=top;spacingLeft=4;spacingRight=4;overflow=hidden;rotatable=0;points=[[0,0.5],[1,0.5]];portConstraint=eastwest;" vertex="1" parent="7YU0cIqNxofq2II2RQas-0">
          <mxGeometry y="156" width="176" height="26" as="geometry" />
        </mxCell>
        <mxCell id="7YU0cIqNxofq2II2RQas-9" value="" style="edgeStyle=entityRelationEdgeStyle;fontSize=12;html=1;endArrow=ERmany;startArrow=ERmany;" edge="1" parent="WIyWlLk6GJQsqaUBKTNV-1" source="7YU0cIqNxofq2II2RQas-0" target="KlAbz1R63R00csABtgRf-115">
          <mxGeometry width="100" height="100" relative="1" as="geometry">
            <mxPoint x="490" y="360" as="sourcePoint" />
            <mxPoint x="590" y="260" as="targetPoint" />
          </mxGeometry>
        </mxCell>
      </root>
    </mxGraphModel>
  </diagram>
  <diagram id="SVLPnnShHF7QGtF0dBgc" name="Class Diagram - Complete">
    <mxGraphModel dx="1955" dy="1761" grid="1" gridSize="10" guides="1" tooltips="1" connect="1" arrows="1" fold="1" page="1" pageScale="1" pageWidth="1169" pageHeight="827" math="0" shadow="0">
      <root>
        <mxCell id="mcE1hDYlNpBtNuXheTGe-0" />
        <mxCell id="mcE1hDYlNpBtNuXheTGe-1" parent="mcE1hDYlNpBtNuXheTGe-0" />
        <mxCell id="Ezzo015AJVUfVhJxR2Pl-15" style="edgeStyle=orthogonalEdgeStyle;rounded=0;orthogonalLoop=1;jettySize=auto;html=1;" edge="1" parent="mcE1hDYlNpBtNuXheTGe-1" source="NBrciL5X3x1F60khJrNm-4" target="Ezzo015AJVUfVhJxR2Pl-2">
          <mxGeometry relative="1" as="geometry" />
        </mxCell>
        <mxCell id="NBrciL5X3x1F60khJrNm-4" value="User" style="swimlane;fontStyle=1;align=center;verticalAlign=top;childLayout=stackLayout;horizontal=1;startSize=26;horizontalStack=0;resizeParent=1;resizeParentMax=0;resizeLast=0;collapsible=1;marginBottom=0;" vertex="1" parent="mcE1hDYlNpBtNuXheTGe-1">
          <mxGeometry x="380" y="30" width="160" height="346" as="geometry" />
        </mxCell>
        <mxCell id="NBrciL5X3x1F60khJrNm-5" value="+ user_id: int" style="text;strokeColor=none;fillColor=none;align=left;verticalAlign=top;spacingLeft=4;spacingRight=4;overflow=hidden;rotatable=0;points=[[0,0.5],[1,0.5]];portConstraint=eastwest;" vertex="1" parent="NBrciL5X3x1F60khJrNm-4">
          <mxGeometry y="26" width="160" height="26" as="geometry" />
        </mxCell>
        <mxCell id="NBrciL5X3x1F60khJrNm-9" value="+ user_role: string" style="text;strokeColor=none;fillColor=none;align=left;verticalAlign=top;spacingLeft=4;spacingRight=4;overflow=hidden;rotatable=0;points=[[0,0.5],[1,0.5]];portConstraint=eastwest;" vertex="1" parent="NBrciL5X3x1F60khJrNm-4">
          <mxGeometry y="52" width="160" height="26" as="geometry" />
        </mxCell>
        <mxCell id="NBrciL5X3x1F60khJrNm-10" value="+ user_name: string" style="text;strokeColor=none;fillColor=none;align=left;verticalAlign=top;spacingLeft=4;spacingRight=4;overflow=hidden;rotatable=0;points=[[0,0.5],[1,0.5]];portConstraint=eastwest;" vertex="1" parent="NBrciL5X3x1F60khJrNm-4">
          <mxGeometry y="78" width="160" height="26" as="geometry" />
        </mxCell>
        <mxCell id="NBrciL5X3x1F60khJrNm-11" value="+ user_first_name: string" style="text;strokeColor=none;fillColor=none;align=left;verticalAlign=top;spacingLeft=4;spacingRight=4;overflow=hidden;rotatable=0;points=[[0,0.5],[1,0.5]];portConstraint=eastwest;" vertex="1" parent="NBrciL5X3x1F60khJrNm-4">
          <mxGeometry y="104" width="160" height="26" as="geometry" />
        </mxCell>
        <mxCell id="NBrciL5X3x1F60khJrNm-12" value="+ user_last_name: string" style="text;strokeColor=none;fillColor=none;align=left;verticalAlign=top;spacingLeft=4;spacingRight=4;overflow=hidden;rotatable=0;points=[[0,0.5],[1,0.5]];portConstraint=eastwest;" vertex="1" parent="NBrciL5X3x1F60khJrNm-4">
          <mxGeometry y="130" width="160" height="26" as="geometry" />
        </mxCell>
        <mxCell id="NBrciL5X3x1F60khJrNm-13" value="+ user_email: string" style="text;strokeColor=none;fillColor=none;align=left;verticalAlign=top;spacingLeft=4;spacingRight=4;overflow=hidden;rotatable=0;points=[[0,0.5],[1,0.5]];portConstraint=eastwest;" vertex="1" parent="NBrciL5X3x1F60khJrNm-4">
          <mxGeometry y="156" width="160" height="26" as="geometry" />
        </mxCell>
        <mxCell id="u72X8sFEpUn-Xdg-1YyM-0" value="+ user_gender: string" style="text;strokeColor=none;fillColor=none;align=left;verticalAlign=top;spacingLeft=4;spacingRight=4;overflow=hidden;rotatable=0;points=[[0,0.5],[1,0.5]];portConstraint=eastwest;" vertex="1" parent="NBrciL5X3x1F60khJrNm-4">
          <mxGeometry y="182" width="160" height="26" as="geometry" />
        </mxCell>
        <mxCell id="Ezzo015AJVUfVhJxR2Pl-0" value="+ team: Team" style="text;strokeColor=none;fillColor=none;align=left;verticalAlign=top;spacingLeft=4;spacingRight=4;overflow=hidden;rotatable=0;points=[[0,0.5],[1,0.5]];portConstraint=eastwest;" vertex="1" parent="NBrciL5X3x1F60khJrNm-4">
          <mxGeometry y="208" width="160" height="26" as="geometry" />
        </mxCell>
        <mxCell id="NBrciL5X3x1F60khJrNm-6" value="" style="line;strokeWidth=1;fillColor=none;align=left;verticalAlign=middle;spacingTop=-1;spacingLeft=3;spacingRight=3;rotatable=0;labelPosition=right;points=[];portConstraint=eastwest;" vertex="1" parent="NBrciL5X3x1F60khJrNm-4">
          <mxGeometry y="234" width="160" height="8" as="geometry" />
        </mxCell>
        <mxCell id="NBrciL5X3x1F60khJrNm-7" value="+ get_user() : none" style="text;strokeColor=none;fillColor=none;align=left;verticalAlign=top;spacingLeft=4;spacingRight=4;overflow=hidden;rotatable=0;points=[[0,0.5],[1,0.5]];portConstraint=eastwest;" vertex="1" parent="NBrciL5X3x1F60khJrNm-4">
          <mxGeometry y="242" width="160" height="26" as="geometry" />
        </mxCell>
        <mxCell id="u72X8sFEpUn-Xdg-1YyM-6" value="+ edit_user() : none" style="text;strokeColor=none;fillColor=none;align=left;verticalAlign=top;spacingLeft=4;spacingRight=4;overflow=hidden;rotatable=0;points=[[0,0.5],[1,0.5]];portConstraint=eastwest;" vertex="1" parent="NBrciL5X3x1F60khJrNm-4">
          <mxGeometry y="268" width="160" height="26" as="geometry" />
        </mxCell>
        <mxCell id="u72X8sFEpUn-Xdg-1YyM-11" value="+ register_user(): none" style="text;strokeColor=none;fillColor=none;align=left;verticalAlign=top;spacingLeft=4;spacingRight=4;overflow=hidden;rotatable=0;points=[[0,0.5],[1,0.5]];portConstraint=eastwest;" vertex="1" parent="NBrciL5X3x1F60khJrNm-4">
          <mxGeometry y="294" width="160" height="26" as="geometry" />
        </mxCell>
        <mxCell id="u72X8sFEpUn-Xdg-1YyM-12" value="+ set_session() : none" style="text;strokeColor=none;fillColor=none;align=left;verticalAlign=top;spacingLeft=4;spacingRight=4;overflow=hidden;rotatable=0;points=[[0,0.5],[1,0.5]];portConstraint=eastwest;" vertex="1" parent="NBrciL5X3x1F60khJrNm-4">
          <mxGeometry y="320" width="160" height="26" as="geometry" />
        </mxCell>
        <mxCell id="u72X8sFEpUn-Xdg-1YyM-65" style="edgeStyle=orthogonalEdgeStyle;rounded=0;orthogonalLoop=1;jettySize=auto;html=1;" edge="1" parent="mcE1hDYlNpBtNuXheTGe-1" source="u72X8sFEpUn-Xdg-1YyM-13" target="NBrciL5X3x1F60khJrNm-4">
          <mxGeometry relative="1" as="geometry" />
        </mxCell>
        <mxCell id="u72X8sFEpUn-Xdg-1YyM-13" value="Program_Manager" style="swimlane;fontStyle=1;align=center;verticalAlign=top;childLayout=stackLayout;horizontal=1;startSize=26;horizontalStack=0;resizeParent=1;resizeParentMax=0;resizeLast=0;collapsible=1;marginBottom=0;" vertex="1" parent="mcE1hDYlNpBtNuXheTGe-1">
          <mxGeometry x="260" y="460" width="190" height="86" as="geometry" />
        </mxCell>
        <mxCell id="u72X8sFEpUn-Xdg-1YyM-20" value="+" style="text;strokeColor=none;fillColor=none;align=left;verticalAlign=top;spacingLeft=4;spacingRight=4;overflow=hidden;rotatable=0;points=[[0,0.5],[1,0.5]];portConstraint=eastwest;" vertex="1" parent="u72X8sFEpUn-Xdg-1YyM-13">
          <mxGeometry y="26" width="190" height="26" as="geometry" />
        </mxCell>
        <mxCell id="u72X8sFEpUn-Xdg-1YyM-21" value="" style="line;strokeWidth=1;fillColor=none;align=left;verticalAlign=middle;spacingTop=-1;spacingLeft=3;spacingRight=3;rotatable=0;labelPosition=right;points=[];portConstraint=eastwest;" vertex="1" parent="u72X8sFEpUn-Xdg-1YyM-13">
          <mxGeometry y="52" width="190" height="8" as="geometry" />
        </mxCell>
        <mxCell id="u72X8sFEpUn-Xdg-1YyM-28" value="+ view_level_of_engagement()" style="text;strokeColor=none;fillColor=none;align=left;verticalAlign=top;spacingLeft=4;spacingRight=4;overflow=hidden;rotatable=0;points=[[0,0.5],[1,0.5]];portConstraint=eastwest;" vertex="1" parent="u72X8sFEpUn-Xdg-1YyM-13">
          <mxGeometry y="60" width="190" height="26" as="geometry" />
        </mxCell>
        <mxCell id="u72X8sFEpUn-Xdg-1YyM-66" style="edgeStyle=orthogonalEdgeStyle;rounded=0;orthogonalLoop=1;jettySize=auto;html=1;" edge="1" parent="mcE1hDYlNpBtNuXheTGe-1" source="u72X8sFEpUn-Xdg-1YyM-29" target="NBrciL5X3x1F60khJrNm-4">
          <mxGeometry relative="1" as="geometry" />
        </mxCell>
        <mxCell id="u72X8sFEpUn-Xdg-1YyM-29" value="Committe_Lead" style="swimlane;fontStyle=1;align=center;verticalAlign=top;childLayout=stackLayout;horizontal=1;startSize=26;horizontalStack=0;resizeParent=1;resizeParentMax=0;resizeLast=0;collapsible=1;marginBottom=0;" vertex="1" parent="mcE1hDYlNpBtNuXheTGe-1">
          <mxGeometry x="490" y="460" width="190" height="86" as="geometry" />
        </mxCell>
        <mxCell id="u72X8sFEpUn-Xdg-1YyM-30" value="+" style="text;strokeColor=none;fillColor=none;align=left;verticalAlign=top;spacingLeft=4;spacingRight=4;overflow=hidden;rotatable=0;points=[[0,0.5],[1,0.5]];portConstraint=eastwest;" vertex="1" parent="u72X8sFEpUn-Xdg-1YyM-29">
          <mxGeometry y="26" width="190" height="26" as="geometry" />
        </mxCell>
        <mxCell id="u72X8sFEpUn-Xdg-1YyM-31" value="" style="line;strokeWidth=1;fillColor=none;align=left;verticalAlign=middle;spacingTop=-1;spacingLeft=3;spacingRight=3;rotatable=0;labelPosition=right;points=[];portConstraint=eastwest;" vertex="1" parent="u72X8sFEpUn-Xdg-1YyM-29">
          <mxGeometry y="52" width="190" height="8" as="geometry" />
        </mxCell>
        <mxCell id="u72X8sFEpUn-Xdg-1YyM-32" value="+ feedback()" style="text;strokeColor=none;fillColor=none;align=left;verticalAlign=top;spacingLeft=4;spacingRight=4;overflow=hidden;rotatable=0;points=[[0,0.5],[1,0.5]];portConstraint=eastwest;" vertex="1" parent="u72X8sFEpUn-Xdg-1YyM-29">
          <mxGeometry y="60" width="190" height="26" as="geometry" />
        </mxCell>
        <mxCell id="Ezzo015AJVUfVhJxR2Pl-14" style="edgeStyle=orthogonalEdgeStyle;rounded=0;orthogonalLoop=1;jettySize=auto;html=1;" edge="1" parent="mcE1hDYlNpBtNuXheTGe-1" source="u72X8sFEpUn-Xdg-1YyM-41" target="Ezzo015AJVUfVhJxR2Pl-2">
          <mxGeometry relative="1" as="geometry">
            <Array as="points">
              <mxPoint x="155" y="-40" />
              <mxPoint x="565" y="-40" />
            </Array>
          </mxGeometry>
        </mxCell>
        <mxCell id="u72X8sFEpUn-Xdg-1YyM-41" value="Team" style="swimlane;fontStyle=1;align=center;verticalAlign=top;childLayout=stackLayout;horizontal=1;startSize=26;horizontalStack=0;resizeParent=1;resizeParentMax=0;resizeLast=0;collapsible=1;marginBottom=0;" vertex="1" parent="mcE1hDYlNpBtNuXheTGe-1">
          <mxGeometry x="70" y="30" width="190" height="398" as="geometry" />
        </mxCell>
        <mxCell id="u72X8sFEpUn-Xdg-1YyM-42" value="+ team_id: int" style="text;strokeColor=none;fillColor=none;align=left;verticalAlign=top;spacingLeft=4;spacingRight=4;overflow=hidden;rotatable=0;points=[[0,0.5],[1,0.5]];portConstraint=eastwest;" vertex="1" parent="u72X8sFEpUn-Xdg-1YyM-41">
          <mxGeometry y="26" width="190" height="26" as="geometry" />
        </mxCell>
        <mxCell id="u72X8sFEpUn-Xdg-1YyM-52" value="+ team_name: string" style="text;strokeColor=none;fillColor=none;align=left;verticalAlign=top;spacingLeft=4;spacingRight=4;overflow=hidden;rotatable=0;points=[[0,0.5],[1,0.5]];portConstraint=eastwest;" vertex="1" parent="u72X8sFEpUn-Xdg-1YyM-41">
          <mxGeometry y="52" width="190" height="26" as="geometry" />
        </mxCell>
        <mxCell id="u72X8sFEpUn-Xdg-1YyM-53" value="+ committe_lead_id: int" style="text;strokeColor=none;fillColor=none;align=left;verticalAlign=top;spacingLeft=4;spacingRight=4;overflow=hidden;rotatable=0;points=[[0,0.5],[1,0.5]];portConstraint=eastwest;" vertex="1" parent="u72X8sFEpUn-Xdg-1YyM-41">
          <mxGeometry y="78" width="190" height="26" as="geometry" />
        </mxCell>
        <mxCell id="u72X8sFEpUn-Xdg-1YyM-55" value="+ committe_lead_name: string" style="text;strokeColor=none;fillColor=none;align=left;verticalAlign=top;spacingLeft=4;spacingRight=4;overflow=hidden;rotatable=0;points=[[0,0.5],[1,0.5]];portConstraint=eastwest;" vertex="1" parent="u72X8sFEpUn-Xdg-1YyM-41">
          <mxGeometry y="104" width="190" height="26" as="geometry" />
        </mxCell>
        <mxCell id="u72X8sFEpUn-Xdg-1YyM-54" value="+ participant_id_1: int" style="text;strokeColor=none;fillColor=none;align=left;verticalAlign=top;spacingLeft=4;spacingRight=4;overflow=hidden;rotatable=0;points=[[0,0.5],[1,0.5]];portConstraint=eastwest;" vertex="1" parent="u72X8sFEpUn-Xdg-1YyM-41">
          <mxGeometry y="130" width="190" height="26" as="geometry" />
        </mxCell>
        <mxCell id="u72X8sFEpUn-Xdg-1YyM-58" value="+ participant_name_1: int" style="text;strokeColor=none;fillColor=none;align=left;verticalAlign=top;spacingLeft=4;spacingRight=4;overflow=hidden;rotatable=0;points=[[0,0.5],[1,0.5]];portConstraint=eastwest;" vertex="1" parent="u72X8sFEpUn-Xdg-1YyM-41">
          <mxGeometry y="156" width="190" height="26" as="geometry" />
        </mxCell>
        <mxCell id="u72X8sFEpUn-Xdg-1YyM-59" value="+ participant_id_2: int" style="text;strokeColor=none;fillColor=none;align=left;verticalAlign=top;spacingLeft=4;spacingRight=4;overflow=hidden;rotatable=0;points=[[0,0.5],[1,0.5]];portConstraint=eastwest;" vertex="1" parent="u72X8sFEpUn-Xdg-1YyM-41">
          <mxGeometry y="182" width="190" height="26" as="geometry" />
        </mxCell>
        <mxCell id="u72X8sFEpUn-Xdg-1YyM-60" value="+ participant_name_2: int" style="text;strokeColor=none;fillColor=none;align=left;verticalAlign=top;spacingLeft=4;spacingRight=4;overflow=hidden;rotatable=0;points=[[0,0.5],[1,0.5]];portConstraint=eastwest;" vertex="1" parent="u72X8sFEpUn-Xdg-1YyM-41">
          <mxGeometry y="208" width="190" height="26" as="geometry" />
        </mxCell>
        <mxCell id="u72X8sFEpUn-Xdg-1YyM-57" value="+ participant_id_3: int" style="text;strokeColor=none;fillColor=none;align=left;verticalAlign=top;spacingLeft=4;spacingRight=4;overflow=hidden;rotatable=0;points=[[0,0.5],[1,0.5]];portConstraint=eastwest;" vertex="1" parent="u72X8sFEpUn-Xdg-1YyM-41">
          <mxGeometry y="234" width="190" height="26" as="geometry" />
        </mxCell>
        <mxCell id="u72X8sFEpUn-Xdg-1YyM-56" value="+ participant_name_3: int" style="text;strokeColor=none;fillColor=none;align=left;verticalAlign=top;spacingLeft=4;spacingRight=4;overflow=hidden;rotatable=0;points=[[0,0.5],[1,0.5]];portConstraint=eastwest;" vertex="1" parent="u72X8sFEpUn-Xdg-1YyM-41">
          <mxGeometry y="260" width="190" height="26" as="geometry" />
        </mxCell>
        <mxCell id="u72X8sFEpUn-Xdg-1YyM-43" value="" style="line;strokeWidth=1;fillColor=none;align=left;verticalAlign=middle;spacingTop=-1;spacingLeft=3;spacingRight=3;rotatable=0;labelPosition=right;points=[];portConstraint=eastwest;" vertex="1" parent="u72X8sFEpUn-Xdg-1YyM-41">
          <mxGeometry y="286" width="190" height="8" as="geometry" />
        </mxCell>
        <mxCell id="u72X8sFEpUn-Xdg-1YyM-67" value="+ get_team()" style="text;strokeColor=none;fillColor=none;align=left;verticalAlign=top;spacingLeft=4;spacingRight=4;overflow=hidden;rotatable=0;points=[[0,0.5],[1,0.5]];portConstraint=eastwest;" vertex="1" parent="u72X8sFEpUn-Xdg-1YyM-41">
          <mxGeometry y="294" width="190" height="26" as="geometry" />
        </mxCell>
        <mxCell id="u72X8sFEpUn-Xdg-1YyM-50" value="+ add_team()" style="text;strokeColor=none;fillColor=none;align=left;verticalAlign=top;spacingLeft=4;spacingRight=4;overflow=hidden;rotatable=0;points=[[0,0.5],[1,0.5]];portConstraint=eastwest;" vertex="1" parent="u72X8sFEpUn-Xdg-1YyM-41">
          <mxGeometry y="320" width="190" height="26" as="geometry" />
        </mxCell>
        <mxCell id="u72X8sFEpUn-Xdg-1YyM-64" value="+ edit_team()" style="text;strokeColor=none;fillColor=none;align=left;verticalAlign=top;spacingLeft=4;spacingRight=4;overflow=hidden;rotatable=0;points=[[0,0.5],[1,0.5]];portConstraint=eastwest;" vertex="1" parent="u72X8sFEpUn-Xdg-1YyM-41">
          <mxGeometry y="346" width="190" height="26" as="geometry" />
        </mxCell>
        <mxCell id="u72X8sFEpUn-Xdg-1YyM-63" value="+ delete_team()" style="text;strokeColor=none;fillColor=none;align=left;verticalAlign=top;spacingLeft=4;spacingRight=4;overflow=hidden;rotatable=0;points=[[0,0.5],[1,0.5]];portConstraint=eastwest;" vertex="1" parent="u72X8sFEpUn-Xdg-1YyM-41">
          <mxGeometry y="372" width="190" height="26" as="geometry" />
        </mxCell>
        <mxCell id="u72X8sFEpUn-Xdg-1YyM-87" value="Lesson" style="swimlane;fontStyle=1;align=center;verticalAlign=top;childLayout=stackLayout;horizontal=1;startSize=26;horizontalStack=0;resizeParent=1;resizeParentMax=0;resizeLast=0;collapsible=1;marginBottom=0;" vertex="1" parent="mcE1hDYlNpBtNuXheTGe-1">
          <mxGeometry x="740" y="376" width="190" height="298" as="geometry" />
        </mxCell>
        <mxCell id="u72X8sFEpUn-Xdg-1YyM-89" value="+ lesson_id: int" style="text;strokeColor=none;fillColor=none;align=left;verticalAlign=top;spacingLeft=4;spacingRight=4;overflow=hidden;rotatable=0;points=[[0,0.5],[1,0.5]];portConstraint=eastwest;" vertex="1" parent="u72X8sFEpUn-Xdg-1YyM-87">
          <mxGeometry y="26" width="190" height="26" as="geometry" />
        </mxCell>
        <mxCell id="u72X8sFEpUn-Xdg-1YyM-88" value="+ lesson_name: string" style="text;strokeColor=none;fillColor=none;align=left;verticalAlign=top;spacingLeft=4;spacingRight=4;overflow=hidden;rotatable=0;points=[[0,0.5],[1,0.5]];portConstraint=eastwest;" vertex="1" parent="u72X8sFEpUn-Xdg-1YyM-87">
          <mxGeometry y="52" width="190" height="26" as="geometry" />
        </mxCell>
        <mxCell id="u72X8sFEpUn-Xdg-1YyM-92" value="+ lesson_start_date: date" style="text;strokeColor=none;fillColor=none;align=left;verticalAlign=top;spacingLeft=4;spacingRight=4;overflow=hidden;rotatable=0;points=[[0,0.5],[1,0.5]];portConstraint=eastwest;" vertex="1" parent="u72X8sFEpUn-Xdg-1YyM-87">
          <mxGeometry y="78" width="190" height="30" as="geometry" />
        </mxCell>
        <mxCell id="u72X8sFEpUn-Xdg-1YyM-93" value="+ lesson_end_date: date" style="text;strokeColor=none;fillColor=none;align=left;verticalAlign=top;spacingLeft=4;spacingRight=4;overflow=hidden;rotatable=0;points=[[0,0.5],[1,0.5]];portConstraint=eastwest;" vertex="1" parent="u72X8sFEpUn-Xdg-1YyM-87">
          <mxGeometry y="108" width="190" height="26" as="geometry" />
        </mxCell>
        <mxCell id="u72X8sFEpUn-Xdg-1YyM-94" value="+ event_id: int" style="text;strokeColor=none;fillColor=none;align=left;verticalAlign=top;spacingLeft=4;spacingRight=4;overflow=hidden;rotatable=0;points=[[0,0.5],[1,0.5]];portConstraint=eastwest;" vertex="1" parent="u72X8sFEpUn-Xdg-1YyM-87">
          <mxGeometry y="134" width="190" height="26" as="geometry" />
        </mxCell>
        <mxCell id="u72X8sFEpUn-Xdg-1YyM-95" value="+ event_name: string" style="text;strokeColor=none;fillColor=none;align=left;verticalAlign=top;spacingLeft=4;spacingRight=4;overflow=hidden;rotatable=0;points=[[0,0.5],[1,0.5]];portConstraint=eastwest;" vertex="1" parent="u72X8sFEpUn-Xdg-1YyM-87">
          <mxGeometry y="160" width="190" height="26" as="geometry" />
        </mxCell>
        <mxCell id="u72X8sFEpUn-Xdg-1YyM-98" value="" style="line;strokeWidth=1;fillColor=none;align=left;verticalAlign=middle;spacingTop=-1;spacingLeft=3;spacingRight=3;rotatable=0;labelPosition=right;points=[];portConstraint=eastwest;" vertex="1" parent="u72X8sFEpUn-Xdg-1YyM-87">
          <mxGeometry y="186" width="190" height="8" as="geometry" />
        </mxCell>
        <mxCell id="u72X8sFEpUn-Xdg-1YyM-99" value="+ add_lesson()" style="text;strokeColor=none;fillColor=none;align=left;verticalAlign=top;spacingLeft=4;spacingRight=4;overflow=hidden;rotatable=0;points=[[0,0.5],[1,0.5]];portConstraint=eastwest;" vertex="1" parent="u72X8sFEpUn-Xdg-1YyM-87">
          <mxGeometry y="194" width="190" height="26" as="geometry" />
        </mxCell>
        <mxCell id="u72X8sFEpUn-Xdg-1YyM-100" value="+ edit_lesson()" style="text;strokeColor=none;fillColor=none;align=left;verticalAlign=top;spacingLeft=4;spacingRight=4;overflow=hidden;rotatable=0;points=[[0,0.5],[1,0.5]];portConstraint=eastwest;" vertex="1" parent="u72X8sFEpUn-Xdg-1YyM-87">
          <mxGeometry y="220" width="190" height="26" as="geometry" />
        </mxCell>
        <mxCell id="u72X8sFEpUn-Xdg-1YyM-101" value="+ delete_lesson()" style="text;strokeColor=none;fillColor=none;align=left;verticalAlign=top;spacingLeft=4;spacingRight=4;overflow=hidden;rotatable=0;points=[[0,0.5],[1,0.5]];portConstraint=eastwest;" vertex="1" parent="u72X8sFEpUn-Xdg-1YyM-87">
          <mxGeometry y="246" width="190" height="26" as="geometry" />
        </mxCell>
        <mxCell id="u72X8sFEpUn-Xdg-1YyM-102" value="+ get_lesson()" style="text;strokeColor=none;fillColor=none;align=left;verticalAlign=top;spacingLeft=4;spacingRight=4;overflow=hidden;rotatable=0;points=[[0,0.5],[1,0.5]];portConstraint=eastwest;" vertex="1" parent="u72X8sFEpUn-Xdg-1YyM-87">
          <mxGeometry y="272" width="190" height="26" as="geometry" />
        </mxCell>
        <mxCell id="Ezzo015AJVUfVhJxR2Pl-17" style="edgeStyle=orthogonalEdgeStyle;rounded=0;orthogonalLoop=1;jettySize=auto;html=1;" edge="1" parent="mcE1hDYlNpBtNuXheTGe-1" source="u72X8sFEpUn-Xdg-1YyM-103" target="Ezzo015AJVUfVhJxR2Pl-2">
          <mxGeometry relative="1" as="geometry">
            <Array as="points">
              <mxPoint x="965" y="-40" />
              <mxPoint x="565" y="-40" />
            </Array>
          </mxGeometry>
        </mxCell>
        <mxCell id="u72X8sFEpUn-Xdg-1YyM-103" value="Event" style="swimlane;fontStyle=1;align=center;verticalAlign=top;childLayout=stackLayout;horizontal=1;startSize=26;horizontalStack=0;resizeParent=1;resizeParentMax=0;resizeLast=0;collapsible=1;marginBottom=0;" vertex="1" parent="mcE1hDYlNpBtNuXheTGe-1">
          <mxGeometry x="870" y="30" width="190" height="298" as="geometry" />
        </mxCell>
        <mxCell id="u72X8sFEpUn-Xdg-1YyM-104" value="+ event_id: int" style="text;strokeColor=none;fillColor=none;align=left;verticalAlign=top;spacingLeft=4;spacingRight=4;overflow=hidden;rotatable=0;points=[[0,0.5],[1,0.5]];portConstraint=eastwest;" vertex="1" parent="u72X8sFEpUn-Xdg-1YyM-103">
          <mxGeometry y="26" width="190" height="26" as="geometry" />
        </mxCell>
        <mxCell id="u72X8sFEpUn-Xdg-1YyM-105" value="+ event_status_code: int" style="text;strokeColor=none;fillColor=none;align=left;verticalAlign=top;spacingLeft=4;spacingRight=4;overflow=hidden;rotatable=0;points=[[0,0.5],[1,0.5]];portConstraint=eastwest;" vertex="1" parent="u72X8sFEpUn-Xdg-1YyM-103">
          <mxGeometry y="52" width="190" height="26" as="geometry" />
        </mxCell>
        <mxCell id="u72X8sFEpUn-Xdg-1YyM-106" value="+ event_status_name: string" style="text;strokeColor=none;fillColor=none;align=left;verticalAlign=top;spacingLeft=4;spacingRight=4;overflow=hidden;rotatable=0;points=[[0,0.5],[1,0.5]];portConstraint=eastwest;" vertex="1" parent="u72X8sFEpUn-Xdg-1YyM-103">
          <mxGeometry y="78" width="190" height="30" as="geometry" />
        </mxCell>
        <mxCell id="u72X8sFEpUn-Xdg-1YyM-107" value="+ event_type_code: int" style="text;strokeColor=none;fillColor=none;align=left;verticalAlign=top;spacingLeft=4;spacingRight=4;overflow=hidden;rotatable=0;points=[[0,0.5],[1,0.5]];portConstraint=eastwest;" vertex="1" parent="u72X8sFEpUn-Xdg-1YyM-103">
          <mxGeometry y="108" width="190" height="26" as="geometry" />
        </mxCell>
        <mxCell id="u72X8sFEpUn-Xdg-1YyM-108" value="+ event_type_description: string" style="text;strokeColor=none;fillColor=none;align=left;verticalAlign=top;spacingLeft=4;spacingRight=4;overflow=hidden;rotatable=0;points=[[0,0.5],[1,0.5]];portConstraint=eastwest;" vertex="1" parent="u72X8sFEpUn-Xdg-1YyM-103">
          <mxGeometry y="134" width="190" height="26" as="geometry" />
        </mxCell>
        <mxCell id="u72X8sFEpUn-Xdg-1YyM-109" value="+ venue_id: int" style="text;strokeColor=none;fillColor=none;align=left;verticalAlign=top;spacingLeft=4;spacingRight=4;overflow=hidden;rotatable=0;points=[[0,0.5],[1,0.5]];portConstraint=eastwest;" vertex="1" parent="u72X8sFEpUn-Xdg-1YyM-103">
          <mxGeometry y="160" width="190" height="26" as="geometry" />
        </mxCell>
        <mxCell id="u72X8sFEpUn-Xdg-1YyM-110" value="" style="line;strokeWidth=1;fillColor=none;align=left;verticalAlign=middle;spacingTop=-1;spacingLeft=3;spacingRight=3;rotatable=0;labelPosition=right;points=[];portConstraint=eastwest;" vertex="1" parent="u72X8sFEpUn-Xdg-1YyM-103">
          <mxGeometry y="186" width="190" height="8" as="geometry" />
        </mxCell>
        <mxCell id="u72X8sFEpUn-Xdg-1YyM-111" value="+ add_event()" style="text;strokeColor=none;fillColor=none;align=left;verticalAlign=top;spacingLeft=4;spacingRight=4;overflow=hidden;rotatable=0;points=[[0,0.5],[1,0.5]];portConstraint=eastwest;" vertex="1" parent="u72X8sFEpUn-Xdg-1YyM-103">
          <mxGeometry y="194" width="190" height="26" as="geometry" />
        </mxCell>
        <mxCell id="u72X8sFEpUn-Xdg-1YyM-112" value="+ edit_event()" style="text;strokeColor=none;fillColor=none;align=left;verticalAlign=top;spacingLeft=4;spacingRight=4;overflow=hidden;rotatable=0;points=[[0,0.5],[1,0.5]];portConstraint=eastwest;" vertex="1" parent="u72X8sFEpUn-Xdg-1YyM-103">
          <mxGeometry y="220" width="190" height="26" as="geometry" />
        </mxCell>
        <mxCell id="u72X8sFEpUn-Xdg-1YyM-113" value="+ delete_event()" style="text;strokeColor=none;fillColor=none;align=left;verticalAlign=top;spacingLeft=4;spacingRight=4;overflow=hidden;rotatable=0;points=[[0,0.5],[1,0.5]];portConstraint=eastwest;" vertex="1" parent="u72X8sFEpUn-Xdg-1YyM-103">
          <mxGeometry y="246" width="190" height="26" as="geometry" />
        </mxCell>
        <mxCell id="u72X8sFEpUn-Xdg-1YyM-114" value="+ get_event()" style="text;strokeColor=none;fillColor=none;align=left;verticalAlign=top;spacingLeft=4;spacingRight=4;overflow=hidden;rotatable=0;points=[[0,0.5],[1,0.5]];portConstraint=eastwest;" vertex="1" parent="u72X8sFEpUn-Xdg-1YyM-103">
          <mxGeometry y="272" width="190" height="26" as="geometry" />
        </mxCell>
        <mxCell id="Ezzo015AJVUfVhJxR2Pl-16" style="edgeStyle=orthogonalEdgeStyle;rounded=0;orthogonalLoop=1;jettySize=auto;html=1;" edge="1" parent="mcE1hDYlNpBtNuXheTGe-1" source="J2qo7QtLuQyRY9ncUvTc-0" target="Ezzo015AJVUfVhJxR2Pl-2">
          <mxGeometry relative="1" as="geometry" />
        </mxCell>
        <mxCell id="J2qo7QtLuQyRY9ncUvTc-0" value="Attendance" style="swimlane;fontStyle=1;align=center;verticalAlign=top;childLayout=stackLayout;horizontal=1;startSize=26;horizontalStack=0;resizeParent=1;resizeParentMax=0;resizeLast=0;collapsible=1;marginBottom=0;" vertex="1" parent="mcE1hDYlNpBtNuXheTGe-1">
          <mxGeometry x="600" y="30" width="190" height="246" as="geometry" />
        </mxCell>
        <mxCell id="J2qo7QtLuQyRY9ncUvTc-1" value="+ attendance_id: int" style="text;strokeColor=none;fillColor=none;align=left;verticalAlign=top;spacingLeft=4;spacingRight=4;overflow=hidden;rotatable=0;points=[[0,0.5],[1,0.5]];portConstraint=eastwest;" vertex="1" parent="J2qo7QtLuQyRY9ncUvTc-0">
          <mxGeometry y="26" width="190" height="26" as="geometry" />
        </mxCell>
        <mxCell id="J2qo7QtLuQyRY9ncUvTc-2" value="+ attendance_status_code: int" style="text;strokeColor=none;fillColor=none;align=left;verticalAlign=top;spacingLeft=4;spacingRight=4;overflow=hidden;rotatable=0;points=[[0,0.5],[1,0.5]];portConstraint=eastwest;" vertex="1" parent="J2qo7QtLuQyRY9ncUvTc-0">
          <mxGeometry y="52" width="190" height="26" as="geometry" />
        </mxCell>
        <mxCell id="J2qo7QtLuQyRY9ncUvTc-3" value="+ attendance_status_name" style="text;strokeColor=none;fillColor=none;align=left;verticalAlign=top;spacingLeft=4;spacingRight=4;overflow=hidden;rotatable=0;points=[[0,0.5],[1,0.5]];portConstraint=eastwest;" vertex="1" parent="J2qo7QtLuQyRY9ncUvTc-0">
          <mxGeometry y="78" width="190" height="30" as="geometry" />
        </mxCell>
        <mxCell id="J2qo7QtLuQyRY9ncUvTc-4" value="+ feedback: string" style="text;strokeColor=none;fillColor=none;align=left;verticalAlign=top;spacingLeft=4;spacingRight=4;overflow=hidden;rotatable=0;points=[[0,0.5],[1,0.5]];portConstraint=eastwest;" vertex="1" parent="J2qo7QtLuQyRY9ncUvTc-0">
          <mxGeometry y="108" width="190" height="26" as="geometry" />
        </mxCell>
        <mxCell id="J2qo7QtLuQyRY9ncUvTc-7" value="" style="line;strokeWidth=1;fillColor=none;align=left;verticalAlign=middle;spacingTop=-1;spacingLeft=3;spacingRight=3;rotatable=0;labelPosition=right;points=[];portConstraint=eastwest;" vertex="1" parent="J2qo7QtLuQyRY9ncUvTc-0">
          <mxGeometry y="134" width="190" height="8" as="geometry" />
        </mxCell>
        <mxCell id="J2qo7QtLuQyRY9ncUvTc-8" value="+ add_attendance()" style="text;strokeColor=none;fillColor=none;align=left;verticalAlign=top;spacingLeft=4;spacingRight=4;overflow=hidden;rotatable=0;points=[[0,0.5],[1,0.5]];portConstraint=eastwest;" vertex="1" parent="J2qo7QtLuQyRY9ncUvTc-0">
          <mxGeometry y="142" width="190" height="26" as="geometry" />
        </mxCell>
        <mxCell id="J2qo7QtLuQyRY9ncUvTc-11" value="+ edit_attendance()" style="text;strokeColor=none;fillColor=none;align=left;verticalAlign=top;spacingLeft=4;spacingRight=4;overflow=hidden;rotatable=0;points=[[0,0.5],[1,0.5]];portConstraint=eastwest;" vertex="1" parent="J2qo7QtLuQyRY9ncUvTc-0">
          <mxGeometry y="168" width="190" height="26" as="geometry" />
        </mxCell>
        <mxCell id="J2qo7QtLuQyRY9ncUvTc-12" value="+ delete_attendance()" style="text;strokeColor=none;fillColor=none;align=left;verticalAlign=top;spacingLeft=4;spacingRight=4;overflow=hidden;rotatable=0;points=[[0,0.5],[1,0.5]];portConstraint=eastwest;" vertex="1" parent="J2qo7QtLuQyRY9ncUvTc-0">
          <mxGeometry y="194" width="190" height="26" as="geometry" />
        </mxCell>
        <mxCell id="J2qo7QtLuQyRY9ncUvTc-13" value="+ get_attendance()" style="text;strokeColor=none;fillColor=none;align=left;verticalAlign=top;spacingLeft=4;spacingRight=4;overflow=hidden;rotatable=0;points=[[0,0.5],[1,0.5]];portConstraint=eastwest;" vertex="1" parent="J2qo7QtLuQyRY9ncUvTc-0">
          <mxGeometry y="220" width="190" height="26" as="geometry" />
        </mxCell>
        <mxCell id="Ezzo015AJVUfVhJxR2Pl-2" value="Dbh" style="swimlane;fontStyle=1;align=center;verticalAlign=top;childLayout=stackLayout;horizontal=1;startSize=26;horizontalStack=0;resizeParent=1;resizeParentMax=0;resizeLast=0;collapsible=1;marginBottom=0;" vertex="1" parent="mcE1hDYlNpBtNuXheTGe-1">
          <mxGeometry x="470" y="-310" width="190" height="194" as="geometry" />
        </mxCell>
        <mxCell id="Ezzo015AJVUfVhJxR2Pl-3" value="- servername: string" style="text;strokeColor=none;fillColor=none;align=left;verticalAlign=top;spacingLeft=4;spacingRight=4;overflow=hidden;rotatable=0;points=[[0,0.5],[1,0.5]];portConstraint=eastwest;" vertex="1" parent="Ezzo015AJVUfVhJxR2Pl-2">
          <mxGeometry y="26" width="190" height="26" as="geometry" />
        </mxCell>
        <mxCell id="Ezzo015AJVUfVhJxR2Pl-4" value="- username: string" style="text;strokeColor=none;fillColor=none;align=left;verticalAlign=top;spacingLeft=4;spacingRight=4;overflow=hidden;rotatable=0;points=[[0,0.5],[1,0.5]];portConstraint=eastwest;" vertex="1" parent="Ezzo015AJVUfVhJxR2Pl-2">
          <mxGeometry y="52" width="190" height="26" as="geometry" />
        </mxCell>
        <mxCell id="Ezzo015AJVUfVhJxR2Pl-5" value="- password: string" style="text;strokeColor=none;fillColor=none;align=left;verticalAlign=top;spacingLeft=4;spacingRight=4;overflow=hidden;rotatable=0;points=[[0,0.5],[1,0.5]];portConstraint=eastwest;" vertex="1" parent="Ezzo015AJVUfVhJxR2Pl-2">
          <mxGeometry y="78" width="190" height="30" as="geometry" />
        </mxCell>
        <mxCell id="Ezzo015AJVUfVhJxR2Pl-6" value="- dbname: string" style="text;strokeColor=none;fillColor=none;align=left;verticalAlign=top;spacingLeft=4;spacingRight=4;overflow=hidden;rotatable=0;points=[[0,0.5],[1,0.5]];portConstraint=eastwest;" vertex="1" parent="Ezzo015AJVUfVhJxR2Pl-2">
          <mxGeometry y="108" width="190" height="26" as="geometry" />
        </mxCell>
        <mxCell id="Ezzo015AJVUfVhJxR2Pl-12" value="- charset: string" style="text;strokeColor=none;fillColor=none;align=left;verticalAlign=top;spacingLeft=4;spacingRight=4;overflow=hidden;rotatable=0;points=[[0,0.5],[1,0.5]];portConstraint=eastwest;" vertex="1" parent="Ezzo015AJVUfVhJxR2Pl-2">
          <mxGeometry y="134" width="190" height="26" as="geometry" />
        </mxCell>
        <mxCell id="Ezzo015AJVUfVhJxR2Pl-7" value="" style="line;strokeWidth=1;fillColor=none;align=left;verticalAlign=middle;spacingTop=-1;spacingLeft=3;spacingRight=3;rotatable=0;labelPosition=right;points=[];portConstraint=eastwest;" vertex="1" parent="Ezzo015AJVUfVhJxR2Pl-2">
          <mxGeometry y="160" width="190" height="8" as="geometry" />
        </mxCell>
        <mxCell id="Ezzo015AJVUfVhJxR2Pl-8" value="+ connect()" style="text;strokeColor=none;fillColor=none;align=left;verticalAlign=top;spacingLeft=4;spacingRight=4;overflow=hidden;rotatable=0;points=[[0,0.5],[1,0.5]];portConstraint=eastwest;" vertex="1" parent="Ezzo015AJVUfVhJxR2Pl-2">
          <mxGeometry y="168" width="190" height="26" as="geometry" />
        </mxCell>
      </root>
    </mxGraphModel>
  </diagram>
  <diagram name="ERD - Simplify" id="-HNzUpwJabiewZs2_KfM">
    <mxGraphModel dx="1662" dy="794" grid="1" gridSize="10" guides="1" tooltips="1" connect="1" arrows="1" fold="1" page="1" pageScale="1" pageWidth="1169" pageHeight="827" math="0" shadow="0">
      <root>
        <mxCell id="X7Iy3C7mPsO7oN9r1TIM-0" />
        <mxCell id="X7Iy3C7mPsO7oN9r1TIM-1" parent="X7Iy3C7mPsO7oN9r1TIM-0" />
        <mxCell id="X7Iy3C7mPsO7oN9r1TIM-2" value="Events" style="swimlane;fontStyle=0;childLayout=stackLayout;horizontal=1;startSize=26;fillColor=none;horizontalStack=0;resizeParent=1;resizeParentMax=0;resizeLast=0;collapsible=1;marginBottom=0;" vertex="1" parent="X7Iy3C7mPsO7oN9r1TIM-1">
          <mxGeometry x="280" y="40" width="210" height="338" as="geometry" />
        </mxCell>
        <mxCell id="X7Iy3C7mPsO7oN9r1TIM-3" value="Event_ID - PK" style="text;strokeColor=none;fillColor=none;align=left;verticalAlign=top;spacingLeft=4;spacingRight=4;overflow=hidden;rotatable=0;points=[[0,0.5],[1,0.5]];portConstraint=eastwest;" vertex="1" parent="X7Iy3C7mPsO7oN9r1TIM-2">
          <mxGeometry y="26" width="210" height="26" as="geometry" />
        </mxCell>
        <mxCell id="X7Iy3C7mPsO7oN9r1TIM-4" value="Event_Status_Code - FK" style="text;strokeColor=none;fillColor=none;align=left;verticalAlign=top;spacingLeft=4;spacingRight=4;overflow=hidden;rotatable=0;points=[[0,0.5],[1,0.5]];portConstraint=eastwest;" vertex="1" parent="X7Iy3C7mPsO7oN9r1TIM-2">
          <mxGeometry y="52" width="210" height="26" as="geometry" />
        </mxCell>
        <mxCell id="X7Iy3C7mPsO7oN9r1TIM-5" value="Event_Type_Code - FK" style="text;strokeColor=none;fillColor=none;align=left;verticalAlign=top;spacingLeft=4;spacingRight=4;overflow=hidden;rotatable=0;points=[[0,0.5],[1,0.5]];portConstraint=eastwest;" vertex="1" parent="X7Iy3C7mPsO7oN9r1TIM-2">
          <mxGeometry y="78" width="210" height="26" as="geometry" />
        </mxCell>
        <mxCell id="X7Iy3C7mPsO7oN9r1TIM-8" value="Venue_ID - FK" style="text;strokeColor=none;fillColor=none;align=left;verticalAlign=top;spacingLeft=4;spacingRight=4;overflow=hidden;rotatable=0;points=[[0,0.5],[1,0.5]];portConstraint=eastwest;" vertex="1" parent="X7Iy3C7mPsO7oN9r1TIM-2">
          <mxGeometry y="104" width="210" height="26" as="geometry" />
        </mxCell>
        <mxCell id="X7Iy3C7mPsO7oN9r1TIM-9" value="Event_Start_Date" style="text;strokeColor=none;fillColor=none;align=left;verticalAlign=top;spacingLeft=4;spacingRight=4;overflow=hidden;rotatable=0;points=[[0,0.5],[1,0.5]];portConstraint=eastwest;" vertex="1" parent="X7Iy3C7mPsO7oN9r1TIM-2">
          <mxGeometry y="130" width="210" height="26" as="geometry" />
        </mxCell>
        <mxCell id="X7Iy3C7mPsO7oN9r1TIM-10" value="Event_End_Date" style="text;strokeColor=none;fillColor=none;align=left;verticalAlign=top;spacingLeft=4;spacingRight=4;overflow=hidden;rotatable=0;points=[[0,0.5],[1,0.5]];portConstraint=eastwest;" vertex="1" parent="X7Iy3C7mPsO7oN9r1TIM-2">
          <mxGeometry y="156" width="210" height="26" as="geometry" />
        </mxCell>
        <mxCell id="X7Iy3C7mPsO7oN9r1TIM-11" value="Number_of_Participants" style="text;strokeColor=none;fillColor=none;align=left;verticalAlign=top;spacingLeft=4;spacingRight=4;overflow=hidden;rotatable=0;points=[[0,0.5],[1,0.5]];portConstraint=eastwest;" vertex="1" parent="X7Iy3C7mPsO7oN9r1TIM-2">
          <mxGeometry y="182" width="210" height="26" as="geometry" />
        </mxCell>
        <mxCell id="X7Iy3C7mPsO7oN9r1TIM-12" value="Discount" style="text;strokeColor=none;fillColor=none;align=left;verticalAlign=top;spacingLeft=4;spacingRight=4;overflow=hidden;rotatable=0;points=[[0,0.5],[1,0.5]];portConstraint=eastwest;" vertex="1" parent="X7Iy3C7mPsO7oN9r1TIM-2">
          <mxGeometry y="208" width="210" height="26" as="geometry" />
        </mxCell>
        <mxCell id="X7Iy3C7mPsO7oN9r1TIM-13" value="Amount_Paid" style="text;strokeColor=none;fillColor=none;align=left;verticalAlign=top;spacingLeft=4;spacingRight=4;overflow=hidden;rotatable=0;points=[[0,0.5],[1,0.5]];portConstraint=eastwest;" vertex="1" parent="X7Iy3C7mPsO7oN9r1TIM-2">
          <mxGeometry y="234" width="210" height="26" as="geometry" />
        </mxCell>
        <mxCell id="X7Iy3C7mPsO7oN9r1TIM-14" value="Total_Cost" style="text;strokeColor=none;fillColor=none;align=left;verticalAlign=top;spacingLeft=4;spacingRight=4;overflow=hidden;rotatable=0;points=[[0,0.5],[1,0.5]];portConstraint=eastwest;" vertex="1" parent="X7Iy3C7mPsO7oN9r1TIM-2">
          <mxGeometry y="260" width="210" height="26" as="geometry" />
        </mxCell>
        <mxCell id="X7Iy3C7mPsO7oN9r1TIM-15" value="Comments" style="text;strokeColor=none;fillColor=none;align=left;verticalAlign=top;spacingLeft=4;spacingRight=4;overflow=hidden;rotatable=0;points=[[0,0.5],[1,0.5]];portConstraint=eastwest;" vertex="1" parent="X7Iy3C7mPsO7oN9r1TIM-2">
          <mxGeometry y="286" width="210" height="26" as="geometry" />
        </mxCell>
        <mxCell id="X7Iy3C7mPsO7oN9r1TIM-16" value="Other_Details" style="text;strokeColor=none;fillColor=none;align=left;verticalAlign=top;spacingLeft=4;spacingRight=4;overflow=hidden;rotatable=0;points=[[0,0.5],[1,0.5]];portConstraint=eastwest;" vertex="1" parent="X7Iy3C7mPsO7oN9r1TIM-2">
          <mxGeometry y="312" width="210" height="26" as="geometry" />
        </mxCell>
        <mxCell id="X7Iy3C7mPsO7oN9r1TIM-22" value="Attendance" style="swimlane;fontStyle=0;childLayout=stackLayout;horizontal=1;startSize=26;fillColor=none;horizontalStack=0;resizeParent=1;resizeParentMax=0;resizeLast=0;collapsible=1;marginBottom=0;" vertex="1" parent="X7Iy3C7mPsO7oN9r1TIM-1">
          <mxGeometry x="710" y="22" width="176" height="156" as="geometry" />
        </mxCell>
        <mxCell id="X7Iy3C7mPsO7oN9r1TIM-23" value="Attendance_ID - PK" style="text;strokeColor=none;fillColor=none;align=left;verticalAlign=top;spacingLeft=4;spacingRight=4;overflow=hidden;rotatable=0;points=[[0,0.5],[1,0.5]];portConstraint=eastwest;" vertex="1" parent="X7Iy3C7mPsO7oN9r1TIM-22">
          <mxGeometry y="26" width="176" height="26" as="geometry" />
        </mxCell>
        <mxCell id="X7Iy3C7mPsO7oN9r1TIM-24" value="Lesson_ID - FK" style="text;strokeColor=none;fillColor=none;align=left;verticalAlign=top;spacingLeft=4;spacingRight=4;overflow=hidden;rotatable=0;points=[[0,0.5],[1,0.5]];portConstraint=eastwest;" vertex="1" parent="X7Iy3C7mPsO7oN9r1TIM-22">
          <mxGeometry y="52" width="176" height="26" as="geometry" />
        </mxCell>
        <mxCell id="X7Iy3C7mPsO7oN9r1TIM-25" value="User_ID - FK" style="text;strokeColor=none;fillColor=none;align=left;verticalAlign=top;spacingLeft=4;spacingRight=4;overflow=hidden;rotatable=0;points=[[0,0.5],[1,0.5]];portConstraint=eastwest;" vertex="1" parent="X7Iy3C7mPsO7oN9r1TIM-22">
          <mxGeometry y="78" width="176" height="26" as="geometry" />
        </mxCell>
        <mxCell id="X7Iy3C7mPsO7oN9r1TIM-26" value="Attendance_Status_Code - FK" style="text;strokeColor=none;fillColor=none;align=left;verticalAlign=top;spacingLeft=4;spacingRight=4;overflow=hidden;rotatable=0;points=[[0,0.5],[1,0.5]];portConstraint=eastwest;" vertex="1" parent="X7Iy3C7mPsO7oN9r1TIM-22">
          <mxGeometry y="104" width="176" height="26" as="geometry" />
        </mxCell>
        <mxCell id="X7Iy3C7mPsO7oN9r1TIM-27" value="Feedback" style="text;strokeColor=none;fillColor=none;align=left;verticalAlign=top;spacingLeft=4;spacingRight=4;overflow=hidden;rotatable=0;points=[[0,0.5],[1,0.5]];portConstraint=eastwest;" vertex="1" parent="X7Iy3C7mPsO7oN9r1TIM-22">
          <mxGeometry y="130" width="176" height="26" as="geometry" />
        </mxCell>
        <mxCell id="X7Iy3C7mPsO7oN9r1TIM-28" value="Ref_Event_Status" style="swimlane;fontStyle=0;childLayout=stackLayout;horizontal=1;startSize=26;fillColor=none;horizontalStack=0;resizeParent=1;resizeParentMax=0;resizeLast=0;collapsible=1;marginBottom=0;" vertex="1" parent="X7Iy3C7mPsO7oN9r1TIM-1">
          <mxGeometry x="20" y="178" width="176" height="78" as="geometry" />
        </mxCell>
        <mxCell id="X7Iy3C7mPsO7oN9r1TIM-29" value="Event_Status_Code - PK" style="text;strokeColor=none;fillColor=none;align=left;verticalAlign=top;spacingLeft=4;spacingRight=4;overflow=hidden;rotatable=0;points=[[0,0.5],[1,0.5]];portConstraint=eastwest;" vertex="1" parent="X7Iy3C7mPsO7oN9r1TIM-28">
          <mxGeometry y="26" width="176" height="26" as="geometry" />
        </mxCell>
        <mxCell id="X7Iy3C7mPsO7oN9r1TIM-30" value="Event_Status_Description" style="text;strokeColor=none;fillColor=none;align=left;verticalAlign=top;spacingLeft=4;spacingRight=4;overflow=hidden;rotatable=0;points=[[0,0.5],[1,0.5]];portConstraint=eastwest;" vertex="1" parent="X7Iy3C7mPsO7oN9r1TIM-28">
          <mxGeometry y="52" width="176" height="26" as="geometry" />
        </mxCell>
        <mxCell id="X7Iy3C7mPsO7oN9r1TIM-31" value="Ref_Event_Types" style="swimlane;fontStyle=0;childLayout=stackLayout;horizontal=1;startSize=26;fillColor=none;horizontalStack=0;resizeParent=1;resizeParentMax=0;resizeLast=0;collapsible=1;marginBottom=0;" vertex="1" parent="X7Iy3C7mPsO7oN9r1TIM-1">
          <mxGeometry x="20" y="298" width="176" height="78" as="geometry" />
        </mxCell>
        <mxCell id="X7Iy3C7mPsO7oN9r1TIM-32" value="Event_Type_Code - PK" style="text;strokeColor=none;fillColor=none;align=left;verticalAlign=top;spacingLeft=4;spacingRight=4;overflow=hidden;rotatable=0;points=[[0,0.5],[1,0.5]];portConstraint=eastwest;" vertex="1" parent="X7Iy3C7mPsO7oN9r1TIM-31">
          <mxGeometry y="26" width="176" height="26" as="geometry" />
        </mxCell>
        <mxCell id="X7Iy3C7mPsO7oN9r1TIM-33" value="Event_Type_Description" style="text;strokeColor=none;fillColor=none;align=left;verticalAlign=top;spacingLeft=4;spacingRight=4;overflow=hidden;rotatable=0;points=[[0,0.5],[1,0.5]];portConstraint=eastwest;" vertex="1" parent="X7Iy3C7mPsO7oN9r1TIM-31">
          <mxGeometry y="52" width="176" height="26" as="geometry" />
        </mxCell>
        <mxCell id="X7Iy3C7mPsO7oN9r1TIM-37" value="User" style="swimlane;fontStyle=0;childLayout=stackLayout;horizontal=1;startSize=26;fillColor=none;horizontalStack=0;resizeParent=1;resizeParentMax=0;resizeLast=0;collapsible=1;marginBottom=0;" vertex="1" parent="X7Iy3C7mPsO7oN9r1TIM-1">
          <mxGeometry x="720" y="376" width="176" height="234" as="geometry" />
        </mxCell>
        <mxCell id="X7Iy3C7mPsO7oN9r1TIM-38" value="User_ID - PK" style="text;strokeColor=none;fillColor=none;align=left;verticalAlign=top;spacingLeft=4;spacingRight=4;overflow=hidden;rotatable=0;points=[[0,0.5],[1,0.5]];portConstraint=eastwest;" vertex="1" parent="X7Iy3C7mPsO7oN9r1TIM-37">
          <mxGeometry y="26" width="176" height="26" as="geometry" />
        </mxCell>
        <mxCell id="X7Iy3C7mPsO7oN9r1TIM-39" value="User_Name" style="text;strokeColor=none;fillColor=none;align=left;verticalAlign=top;spacingLeft=4;spacingRight=4;overflow=hidden;rotatable=0;points=[[0,0.5],[1,0.5]];portConstraint=eastwest;" vertex="1" parent="X7Iy3C7mPsO7oN9r1TIM-37">
          <mxGeometry y="52" width="176" height="26" as="geometry" />
        </mxCell>
        <mxCell id="X7Iy3C7mPsO7oN9r1TIM-40" value="User_First_Name" style="text;strokeColor=none;fillColor=none;align=left;verticalAlign=top;spacingLeft=4;spacingRight=4;overflow=hidden;rotatable=0;points=[[0,0.5],[1,0.5]];portConstraint=eastwest;" vertex="1" parent="X7Iy3C7mPsO7oN9r1TIM-37">
          <mxGeometry y="78" width="176" height="26" as="geometry" />
        </mxCell>
        <mxCell id="X7Iy3C7mPsO7oN9r1TIM-41" value="User_Last_Name" style="text;strokeColor=none;fillColor=none;align=left;verticalAlign=top;spacingLeft=4;spacingRight=4;overflow=hidden;rotatable=0;points=[[0,0.5],[1,0.5]];portConstraint=eastwest;" vertex="1" parent="X7Iy3C7mPsO7oN9r1TIM-37">
          <mxGeometry y="104" width="176" height="26" as="geometry" />
        </mxCell>
        <mxCell id="X7Iy3C7mPsO7oN9r1TIM-42" value="User_Password" style="text;strokeColor=none;fillColor=none;align=left;verticalAlign=top;spacingLeft=4;spacingRight=4;overflow=hidden;rotatable=0;points=[[0,0.5],[1,0.5]];portConstraint=eastwest;" vertex="1" parent="X7Iy3C7mPsO7oN9r1TIM-37">
          <mxGeometry y="130" width="176" height="26" as="geometry" />
        </mxCell>
        <mxCell id="X7Iy3C7mPsO7oN9r1TIM-43" value="User_Email" style="text;strokeColor=none;fillColor=none;align=left;verticalAlign=top;spacingLeft=4;spacingRight=4;overflow=hidden;rotatable=0;points=[[0,0.5],[1,0.5]];portConstraint=eastwest;" vertex="1" parent="X7Iy3C7mPsO7oN9r1TIM-37">
          <mxGeometry y="156" width="176" height="26" as="geometry" />
        </mxCell>
        <mxCell id="X7Iy3C7mPsO7oN9r1TIM-44" value="User_Gender" style="text;strokeColor=none;fillColor=none;align=left;verticalAlign=top;spacingLeft=4;spacingRight=4;overflow=hidden;rotatable=0;points=[[0,0.5],[1,0.5]];portConstraint=eastwest;" vertex="1" parent="X7Iy3C7mPsO7oN9r1TIM-37">
          <mxGeometry y="182" width="176" height="26" as="geometry" />
        </mxCell>
        <mxCell id="X7Iy3C7mPsO7oN9r1TIM-45" value="User_Role_Code" style="text;strokeColor=none;fillColor=none;align=left;verticalAlign=top;spacingLeft=4;spacingRight=4;overflow=hidden;rotatable=0;points=[[0,0.5],[1,0.5]];portConstraint=eastwest;" vertex="1" parent="X7Iy3C7mPsO7oN9r1TIM-37">
          <mxGeometry y="208" width="176" height="26" as="geometry" />
        </mxCell>
        <mxCell id="X7Iy3C7mPsO7oN9r1TIM-52" value="Ref_Attendance_Status" style="swimlane;fontStyle=0;childLayout=stackLayout;horizontal=1;startSize=26;fillColor=none;horizontalStack=0;resizeParent=1;resizeParentMax=0;resizeLast=0;collapsible=1;marginBottom=0;" vertex="1" parent="X7Iy3C7mPsO7oN9r1TIM-1">
          <mxGeometry x="710" y="230" width="176" height="104" as="geometry" />
        </mxCell>
        <mxCell id="X7Iy3C7mPsO7oN9r1TIM-53" value="Attendance_Status_Code - PK" style="text;strokeColor=none;fillColor=none;align=left;verticalAlign=top;spacingLeft=4;spacingRight=4;overflow=hidden;rotatable=0;points=[[0,0.5],[1,0.5]];portConstraint=eastwest;" vertex="1" parent="X7Iy3C7mPsO7oN9r1TIM-52">
          <mxGeometry y="26" width="176" height="26" as="geometry" />
        </mxCell>
        <mxCell id="X7Iy3C7mPsO7oN9r1TIM-54" value="Attendance_Status_Name" style="text;strokeColor=none;fillColor=none;align=left;verticalAlign=top;spacingLeft=4;spacingRight=4;overflow=hidden;rotatable=0;points=[[0,0.5],[1,0.5]];portConstraint=eastwest;" vertex="1" parent="X7Iy3C7mPsO7oN9r1TIM-52">
          <mxGeometry y="52" width="176" height="26" as="geometry" />
        </mxCell>
        <mxCell id="X7Iy3C7mPsO7oN9r1TIM-55" value="Attendance_Status_Description" style="text;strokeColor=none;fillColor=none;align=left;verticalAlign=top;spacingLeft=4;spacingRight=4;overflow=hidden;rotatable=0;points=[[0,0.5],[1,0.5]];portConstraint=eastwest;" vertex="1" parent="X7Iy3C7mPsO7oN9r1TIM-52">
          <mxGeometry y="78" width="176" height="26" as="geometry" />
        </mxCell>
        <mxCell id="X7Iy3C7mPsO7oN9r1TIM-57" value="" style="edgeStyle=entityRelationEdgeStyle;fontSize=12;html=1;endArrow=ERoneToMany;" edge="1" parent="X7Iy3C7mPsO7oN9r1TIM-1" source="X7Iy3C7mPsO7oN9r1TIM-28" target="X7Iy3C7mPsO7oN9r1TIM-2">
          <mxGeometry width="100" height="100" relative="1" as="geometry">
            <mxPoint x="200" y="423" as="sourcePoint" />
            <mxPoint x="300" y="323" as="targetPoint" />
          </mxGeometry>
        </mxCell>
        <mxCell id="X7Iy3C7mPsO7oN9r1TIM-58" value="" style="edgeStyle=entityRelationEdgeStyle;fontSize=12;html=1;endArrow=ERmany;" edge="1" parent="X7Iy3C7mPsO7oN9r1TIM-1" source="X7Iy3C7mPsO7oN9r1TIM-2" target="X7Iy3C7mPsO7oN9r1TIM-22">
          <mxGeometry width="100" height="100" relative="1" as="geometry">
            <mxPoint x="630" y="450" as="sourcePoint" />
            <mxPoint x="710" y="118" as="targetPoint" />
          </mxGeometry>
        </mxCell>
        <mxCell id="X7Iy3C7mPsO7oN9r1TIM-59" value="" style="edgeStyle=entityRelationEdgeStyle;fontSize=12;html=1;endArrow=ERmany;" edge="1" parent="X7Iy3C7mPsO7oN9r1TIM-1" source="X7Iy3C7mPsO7oN9r1TIM-31" target="X7Iy3C7mPsO7oN9r1TIM-2">
          <mxGeometry width="100" height="100" relative="1" as="geometry">
            <mxPoint x="220" y="380" as="sourcePoint" />
            <mxPoint x="320" y="280" as="targetPoint" />
          </mxGeometry>
        </mxCell>
        <mxCell id="X7Iy3C7mPsO7oN9r1TIM-62" value="" style="edgeStyle=entityRelationEdgeStyle;fontSize=12;html=1;endArrow=ERmany;" edge="1" parent="X7Iy3C7mPsO7oN9r1TIM-1" source="X7Iy3C7mPsO7oN9r1TIM-37" target="X7Iy3C7mPsO7oN9r1TIM-22">
          <mxGeometry width="100" height="100" relative="1" as="geometry">
            <mxPoint x="770" y="398" as="sourcePoint" />
            <mxPoint x="870" y="298" as="targetPoint" />
          </mxGeometry>
        </mxCell>
        <mxCell id="X7Iy3C7mPsO7oN9r1TIM-63" value="" style="edgeStyle=entityRelationEdgeStyle;fontSize=12;html=1;endArrow=ERmany;" edge="1" parent="X7Iy3C7mPsO7oN9r1TIM-1" source="X7Iy3C7mPsO7oN9r1TIM-52" target="X7Iy3C7mPsO7oN9r1TIM-22">
          <mxGeometry width="100" height="100" relative="1" as="geometry">
            <mxPoint x="750" y="430" as="sourcePoint" />
            <mxPoint x="850" y="330" as="targetPoint" />
          </mxGeometry>
        </mxCell>
        <mxCell id="X7Iy3C7mPsO7oN9r1TIM-64" value="Ref_User_Role" style="swimlane;fontStyle=0;childLayout=stackLayout;horizontal=1;startSize=26;fillColor=none;horizontalStack=0;resizeParent=1;resizeParentMax=0;resizeLast=0;collapsible=1;marginBottom=0;" vertex="1" parent="X7Iy3C7mPsO7oN9r1TIM-1">
          <mxGeometry x="500" y="370" width="176" height="104" as="geometry" />
        </mxCell>
        <mxCell id="X7Iy3C7mPsO7oN9r1TIM-65" value="User_Role_Code - PK" style="text;strokeColor=none;fillColor=none;align=left;verticalAlign=top;spacingLeft=4;spacingRight=4;overflow=hidden;rotatable=0;points=[[0,0.5],[1,0.5]];portConstraint=eastwest;" vertex="1" parent="X7Iy3C7mPsO7oN9r1TIM-64">
          <mxGeometry y="26" width="176" height="26" as="geometry" />
        </mxCell>
        <mxCell id="X7Iy3C7mPsO7oN9r1TIM-66" value="User_Role_Name" style="text;strokeColor=none;fillColor=none;align=left;verticalAlign=top;spacingLeft=4;spacingRight=4;overflow=hidden;rotatable=0;points=[[0,0.5],[1,0.5]];portConstraint=eastwest;" vertex="1" parent="X7Iy3C7mPsO7oN9r1TIM-64">
          <mxGeometry y="52" width="176" height="26" as="geometry" />
        </mxCell>
        <mxCell id="X7Iy3C7mPsO7oN9r1TIM-67" value="User_Role_Description" style="text;strokeColor=none;fillColor=none;align=left;verticalAlign=top;spacingLeft=4;spacingRight=4;overflow=hidden;rotatable=0;points=[[0,0.5],[1,0.5]];portConstraint=eastwest;" vertex="1" parent="X7Iy3C7mPsO7oN9r1TIM-64">
          <mxGeometry y="78" width="176" height="26" as="geometry" />
        </mxCell>
        <mxCell id="X7Iy3C7mPsO7oN9r1TIM-68" value="" style="edgeStyle=entityRelationEdgeStyle;fontSize=12;html=1;endArrow=ERmany;" edge="1" parent="X7Iy3C7mPsO7oN9r1TIM-1" source="X7Iy3C7mPsO7oN9r1TIM-64" target="X7Iy3C7mPsO7oN9r1TIM-37">
          <mxGeometry width="100" height="100" relative="1" as="geometry">
            <mxPoint x="530" y="460" as="sourcePoint" />
            <mxPoint x="630" y="360" as="targetPoint" />
          </mxGeometry>
        </mxCell>
        <mxCell id="X7Iy3C7mPsO7oN9r1TIM-69" value="Team" style="swimlane;fontStyle=0;childLayout=stackLayout;horizontal=1;startSize=26;fillColor=none;horizontalStack=0;resizeParent=1;resizeParentMax=0;resizeLast=0;collapsible=1;marginBottom=0;" vertex="1" parent="X7Iy3C7mPsO7oN9r1TIM-1">
          <mxGeometry x="496" y="510" width="176" height="182" as="geometry" />
        </mxCell>
        <mxCell id="X7Iy3C7mPsO7oN9r1TIM-70" value="Team_ID" style="text;strokeColor=none;fillColor=none;align=left;verticalAlign=top;spacingLeft=4;spacingRight=4;overflow=hidden;rotatable=0;points=[[0,0.5],[1,0.5]];portConstraint=eastwest;" vertex="1" parent="X7Iy3C7mPsO7oN9r1TIM-69">
          <mxGeometry y="26" width="176" height="26" as="geometry" />
        </mxCell>
        <mxCell id="X7Iy3C7mPsO7oN9r1TIM-71" value="Team_Name" style="text;strokeColor=none;fillColor=none;align=left;verticalAlign=top;spacingLeft=4;spacingRight=4;overflow=hidden;rotatable=0;points=[[0,0.5],[1,0.5]];portConstraint=eastwest;" vertex="1" parent="X7Iy3C7mPsO7oN9r1TIM-69">
          <mxGeometry y="52" width="176" height="26" as="geometry" />
        </mxCell>
        <mxCell id="X7Iy3C7mPsO7oN9r1TIM-72" value="Committe_Lead_ID" style="text;strokeColor=none;fillColor=none;align=left;verticalAlign=top;spacingLeft=4;spacingRight=4;overflow=hidden;rotatable=0;points=[[0,0.5],[1,0.5]];portConstraint=eastwest;" vertex="1" parent="X7Iy3C7mPsO7oN9r1TIM-69">
          <mxGeometry y="78" width="176" height="26" as="geometry" />
        </mxCell>
        <mxCell id="X7Iy3C7mPsO7oN9r1TIM-73" value="Participant_ID_1" style="text;strokeColor=none;fillColor=none;align=left;verticalAlign=top;spacingLeft=4;spacingRight=4;overflow=hidden;rotatable=0;points=[[0,0.5],[1,0.5]];portConstraint=eastwest;" vertex="1" parent="X7Iy3C7mPsO7oN9r1TIM-69">
          <mxGeometry y="104" width="176" height="26" as="geometry" />
        </mxCell>
        <mxCell id="X7Iy3C7mPsO7oN9r1TIM-74" value="Participant_ID_2" style="text;strokeColor=none;fillColor=none;align=left;verticalAlign=top;spacingLeft=4;spacingRight=4;overflow=hidden;rotatable=0;points=[[0,0.5],[1,0.5]];portConstraint=eastwest;" vertex="1" parent="X7Iy3C7mPsO7oN9r1TIM-69">
          <mxGeometry y="130" width="176" height="26" as="geometry" />
        </mxCell>
        <mxCell id="X7Iy3C7mPsO7oN9r1TIM-75" value="Participant_ID_3" style="text;strokeColor=none;fillColor=none;align=left;verticalAlign=top;spacingLeft=4;spacingRight=4;overflow=hidden;rotatable=0;points=[[0,0.5],[1,0.5]];portConstraint=eastwest;" vertex="1" parent="X7Iy3C7mPsO7oN9r1TIM-69">
          <mxGeometry y="156" width="176" height="26" as="geometry" />
        </mxCell>
        <mxCell id="X7Iy3C7mPsO7oN9r1TIM-76" value="" style="edgeStyle=entityRelationEdgeStyle;fontSize=12;html=1;endArrow=ERmany;startArrow=ERmany;" edge="1" parent="X7Iy3C7mPsO7oN9r1TIM-1" source="X7Iy3C7mPsO7oN9r1TIM-69" target="X7Iy3C7mPsO7oN9r1TIM-37">
          <mxGeometry width="100" height="100" relative="1" as="geometry">
            <mxPoint x="490" y="360" as="sourcePoint" />
            <mxPoint x="590" y="260" as="targetPoint" />
          </mxGeometry>
        </mxCell>
      </root>
    </mxGraphModel>
  </diagram>
  <diagram name="Class Diagram - Simplify" id="gCK2ZkmAMvhQcmNcqkyg">
    <mxGraphModel dx="1662" dy="794" grid="1" gridSize="10" guides="1" tooltips="1" connect="1" arrows="1" fold="1" page="1" pageScale="1" pageWidth="1169" pageHeight="827" math="0" shadow="0">
      <root>
        <mxCell id="2HssygnoRWeI-F0pAfdb-0" />
        <mxCell id="2HssygnoRWeI-F0pAfdb-1" parent="2HssygnoRWeI-F0pAfdb-0" />
        <mxCell id="2HssygnoRWeI-F0pAfdb-2" style="edgeStyle=orthogonalEdgeStyle;rounded=0;orthogonalLoop=1;jettySize=auto;html=1;" edge="1" parent="2HssygnoRWeI-F0pAfdb-1" source="2HssygnoRWeI-F0pAfdb-3" target="2HssygnoRWeI-F0pAfdb-80">
          <mxGeometry relative="1" as="geometry">
            <mxPoint x="575" y="240" as="targetPoint" />
            <Array as="points">
              <mxPoint x="460" y="266" />
              <mxPoint x="575" y="266" />
            </Array>
          </mxGeometry>
        </mxCell>
        <mxCell id="2HssygnoRWeI-F0pAfdb-3" value="User" style="swimlane;fontStyle=1;align=center;verticalAlign=top;childLayout=stackLayout;horizontal=1;startSize=26;horizontalStack=0;resizeParent=1;resizeParentMax=0;resizeLast=0;collapsible=1;marginBottom=0;" vertex="1" parent="2HssygnoRWeI-F0pAfdb-1">
          <mxGeometry x="380" y="276" width="160" height="346" as="geometry" />
        </mxCell>
        <mxCell id="2HssygnoRWeI-F0pAfdb-4" value="+ user_id: int" style="text;strokeColor=none;fillColor=none;align=left;verticalAlign=top;spacingLeft=4;spacingRight=4;overflow=hidden;rotatable=0;points=[[0,0.5],[1,0.5]];portConstraint=eastwest;" vertex="1" parent="2HssygnoRWeI-F0pAfdb-3">
          <mxGeometry y="26" width="160" height="26" as="geometry" />
        </mxCell>
        <mxCell id="2HssygnoRWeI-F0pAfdb-5" value="+ user_role: string" style="text;strokeColor=none;fillColor=none;align=left;verticalAlign=top;spacingLeft=4;spacingRight=4;overflow=hidden;rotatable=0;points=[[0,0.5],[1,0.5]];portConstraint=eastwest;" vertex="1" parent="2HssygnoRWeI-F0pAfdb-3">
          <mxGeometry y="52" width="160" height="26" as="geometry" />
        </mxCell>
        <mxCell id="2HssygnoRWeI-F0pAfdb-6" value="+ user_name: string" style="text;strokeColor=none;fillColor=none;align=left;verticalAlign=top;spacingLeft=4;spacingRight=4;overflow=hidden;rotatable=0;points=[[0,0.5],[1,0.5]];portConstraint=eastwest;" vertex="1" parent="2HssygnoRWeI-F0pAfdb-3">
          <mxGeometry y="78" width="160" height="26" as="geometry" />
        </mxCell>
        <mxCell id="2HssygnoRWeI-F0pAfdb-7" value="+ user_first_name: string" style="text;strokeColor=none;fillColor=none;align=left;verticalAlign=top;spacingLeft=4;spacingRight=4;overflow=hidden;rotatable=0;points=[[0,0.5],[1,0.5]];portConstraint=eastwest;" vertex="1" parent="2HssygnoRWeI-F0pAfdb-3">
          <mxGeometry y="104" width="160" height="26" as="geometry" />
        </mxCell>
        <mxCell id="2HssygnoRWeI-F0pAfdb-8" value="+ user_last_name: string" style="text;strokeColor=none;fillColor=none;align=left;verticalAlign=top;spacingLeft=4;spacingRight=4;overflow=hidden;rotatable=0;points=[[0,0.5],[1,0.5]];portConstraint=eastwest;" vertex="1" parent="2HssygnoRWeI-F0pAfdb-3">
          <mxGeometry y="130" width="160" height="26" as="geometry" />
        </mxCell>
        <mxCell id="2HssygnoRWeI-F0pAfdb-9" value="+ user_email: string" style="text;strokeColor=none;fillColor=none;align=left;verticalAlign=top;spacingLeft=4;spacingRight=4;overflow=hidden;rotatable=0;points=[[0,0.5],[1,0.5]];portConstraint=eastwest;" vertex="1" parent="2HssygnoRWeI-F0pAfdb-3">
          <mxGeometry y="156" width="160" height="26" as="geometry" />
        </mxCell>
        <mxCell id="2HssygnoRWeI-F0pAfdb-10" value="+ user_gender: string" style="text;strokeColor=none;fillColor=none;align=left;verticalAlign=top;spacingLeft=4;spacingRight=4;overflow=hidden;rotatable=0;points=[[0,0.5],[1,0.5]];portConstraint=eastwest;" vertex="1" parent="2HssygnoRWeI-F0pAfdb-3">
          <mxGeometry y="182" width="160" height="26" as="geometry" />
        </mxCell>
        <mxCell id="2HssygnoRWeI-F0pAfdb-11" value="+ team: Team" style="text;strokeColor=none;fillColor=none;align=left;verticalAlign=top;spacingLeft=4;spacingRight=4;overflow=hidden;rotatable=0;points=[[0,0.5],[1,0.5]];portConstraint=eastwest;" vertex="1" parent="2HssygnoRWeI-F0pAfdb-3">
          <mxGeometry y="208" width="160" height="26" as="geometry" />
        </mxCell>
        <mxCell id="2HssygnoRWeI-F0pAfdb-12" value="" style="line;strokeWidth=1;fillColor=none;align=left;verticalAlign=middle;spacingTop=-1;spacingLeft=3;spacingRight=3;rotatable=0;labelPosition=right;points=[];portConstraint=eastwest;" vertex="1" parent="2HssygnoRWeI-F0pAfdb-3">
          <mxGeometry y="234" width="160" height="8" as="geometry" />
        </mxCell>
        <mxCell id="2HssygnoRWeI-F0pAfdb-13" value="+ get_user() : none" style="text;strokeColor=none;fillColor=none;align=left;verticalAlign=top;spacingLeft=4;spacingRight=4;overflow=hidden;rotatable=0;points=[[0,0.5],[1,0.5]];portConstraint=eastwest;" vertex="1" parent="2HssygnoRWeI-F0pAfdb-3">
          <mxGeometry y="242" width="160" height="26" as="geometry" />
        </mxCell>
        <mxCell id="2HssygnoRWeI-F0pAfdb-14" value="+ edit_user() : none" style="text;strokeColor=none;fillColor=none;align=left;verticalAlign=top;spacingLeft=4;spacingRight=4;overflow=hidden;rotatable=0;points=[[0,0.5],[1,0.5]];portConstraint=eastwest;" vertex="1" parent="2HssygnoRWeI-F0pAfdb-3">
          <mxGeometry y="268" width="160" height="26" as="geometry" />
        </mxCell>
        <mxCell id="2HssygnoRWeI-F0pAfdb-15" value="+ register_user(): none" style="text;strokeColor=none;fillColor=none;align=left;verticalAlign=top;spacingLeft=4;spacingRight=4;overflow=hidden;rotatable=0;points=[[0,0.5],[1,0.5]];portConstraint=eastwest;" vertex="1" parent="2HssygnoRWeI-F0pAfdb-3">
          <mxGeometry y="294" width="160" height="26" as="geometry" />
        </mxCell>
        <mxCell id="2HssygnoRWeI-F0pAfdb-16" value="+ set_session() : none" style="text;strokeColor=none;fillColor=none;align=left;verticalAlign=top;spacingLeft=4;spacingRight=4;overflow=hidden;rotatable=0;points=[[0,0.5],[1,0.5]];portConstraint=eastwest;" vertex="1" parent="2HssygnoRWeI-F0pAfdb-3">
          <mxGeometry y="320" width="160" height="26" as="geometry" />
        </mxCell>
        <mxCell id="2HssygnoRWeI-F0pAfdb-17" style="edgeStyle=orthogonalEdgeStyle;rounded=0;orthogonalLoop=1;jettySize=auto;html=1;" edge="1" parent="2HssygnoRWeI-F0pAfdb-1" source="2HssygnoRWeI-F0pAfdb-18" target="2HssygnoRWeI-F0pAfdb-3">
          <mxGeometry relative="1" as="geometry" />
        </mxCell>
        <mxCell id="2HssygnoRWeI-F0pAfdb-18" value="Program_Manager" style="swimlane;fontStyle=1;align=center;verticalAlign=top;childLayout=stackLayout;horizontal=1;startSize=26;horizontalStack=0;resizeParent=1;resizeParentMax=0;resizeLast=0;collapsible=1;marginBottom=0;" vertex="1" parent="2HssygnoRWeI-F0pAfdb-1">
          <mxGeometry x="270" y="700" width="190" height="86" as="geometry" />
        </mxCell>
        <mxCell id="2HssygnoRWeI-F0pAfdb-19" value="+" style="text;strokeColor=none;fillColor=none;align=left;verticalAlign=top;spacingLeft=4;spacingRight=4;overflow=hidden;rotatable=0;points=[[0,0.5],[1,0.5]];portConstraint=eastwest;" vertex="1" parent="2HssygnoRWeI-F0pAfdb-18">
          <mxGeometry y="26" width="190" height="26" as="geometry" />
        </mxCell>
        <mxCell id="2HssygnoRWeI-F0pAfdb-20" value="" style="line;strokeWidth=1;fillColor=none;align=left;verticalAlign=middle;spacingTop=-1;spacingLeft=3;spacingRight=3;rotatable=0;labelPosition=right;points=[];portConstraint=eastwest;" vertex="1" parent="2HssygnoRWeI-F0pAfdb-18">
          <mxGeometry y="52" width="190" height="8" as="geometry" />
        </mxCell>
        <mxCell id="2HssygnoRWeI-F0pAfdb-21" value="+ view_level_of_engagement()" style="text;strokeColor=none;fillColor=none;align=left;verticalAlign=top;spacingLeft=4;spacingRight=4;overflow=hidden;rotatable=0;points=[[0,0.5],[1,0.5]];portConstraint=eastwest;" vertex="1" parent="2HssygnoRWeI-F0pAfdb-18">
          <mxGeometry y="60" width="190" height="26" as="geometry" />
        </mxCell>
        <mxCell id="2HssygnoRWeI-F0pAfdb-22" style="edgeStyle=orthogonalEdgeStyle;rounded=0;orthogonalLoop=1;jettySize=auto;html=1;" edge="1" parent="2HssygnoRWeI-F0pAfdb-1" source="2HssygnoRWeI-F0pAfdb-23" target="2HssygnoRWeI-F0pAfdb-3">
          <mxGeometry relative="1" as="geometry" />
        </mxCell>
        <mxCell id="2HssygnoRWeI-F0pAfdb-23" value="Committe_Lead" style="swimlane;fontStyle=1;align=center;verticalAlign=top;childLayout=stackLayout;horizontal=1;startSize=26;horizontalStack=0;resizeParent=1;resizeParentMax=0;resizeLast=0;collapsible=1;marginBottom=0;" vertex="1" parent="2HssygnoRWeI-F0pAfdb-1">
          <mxGeometry x="490" y="700" width="190" height="86" as="geometry" />
        </mxCell>
        <mxCell id="2HssygnoRWeI-F0pAfdb-24" value="+" style="text;strokeColor=none;fillColor=none;align=left;verticalAlign=top;spacingLeft=4;spacingRight=4;overflow=hidden;rotatable=0;points=[[0,0.5],[1,0.5]];portConstraint=eastwest;" vertex="1" parent="2HssygnoRWeI-F0pAfdb-23">
          <mxGeometry y="26" width="190" height="26" as="geometry" />
        </mxCell>
        <mxCell id="2HssygnoRWeI-F0pAfdb-25" value="" style="line;strokeWidth=1;fillColor=none;align=left;verticalAlign=middle;spacingTop=-1;spacingLeft=3;spacingRight=3;rotatable=0;labelPosition=right;points=[];portConstraint=eastwest;" vertex="1" parent="2HssygnoRWeI-F0pAfdb-23">
          <mxGeometry y="52" width="190" height="8" as="geometry" />
        </mxCell>
        <mxCell id="2HssygnoRWeI-F0pAfdb-26" value="+ feedback()" style="text;strokeColor=none;fillColor=none;align=left;verticalAlign=top;spacingLeft=4;spacingRight=4;overflow=hidden;rotatable=0;points=[[0,0.5],[1,0.5]];portConstraint=eastwest;" vertex="1" parent="2HssygnoRWeI-F0pAfdb-23">
          <mxGeometry y="60" width="190" height="26" as="geometry" />
        </mxCell>
        <mxCell id="2HssygnoRWeI-F0pAfdb-27" style="edgeStyle=orthogonalEdgeStyle;rounded=0;orthogonalLoop=1;jettySize=auto;html=1;" edge="1" parent="2HssygnoRWeI-F0pAfdb-1" source="2HssygnoRWeI-F0pAfdb-28" target="2HssygnoRWeI-F0pAfdb-80">
          <mxGeometry relative="1" as="geometry">
            <mxPoint x="575" y="240" as="targetPoint" />
            <Array as="points">
              <mxPoint x="175" y="266" />
              <mxPoint x="575" y="266" />
            </Array>
          </mxGeometry>
        </mxCell>
        <mxCell id="2HssygnoRWeI-F0pAfdb-28" value="Team" style="swimlane;fontStyle=1;align=center;verticalAlign=top;childLayout=stackLayout;horizontal=1;startSize=26;horizontalStack=0;resizeParent=1;resizeParentMax=0;resizeLast=0;collapsible=1;marginBottom=0;" vertex="1" parent="2HssygnoRWeI-F0pAfdb-1">
          <mxGeometry x="80" y="276" width="190" height="424" as="geometry" />
        </mxCell>
        <mxCell id="2HssygnoRWeI-F0pAfdb-29" value="+ team_id: int" style="text;strokeColor=none;fillColor=none;align=left;verticalAlign=top;spacingLeft=4;spacingRight=4;overflow=hidden;rotatable=0;points=[[0,0.5],[1,0.5]];portConstraint=eastwest;" vertex="1" parent="2HssygnoRWeI-F0pAfdb-28">
          <mxGeometry y="26" width="190" height="26" as="geometry" />
        </mxCell>
        <mxCell id="2HssygnoRWeI-F0pAfdb-30" value="+ team_name: string" style="text;strokeColor=none;fillColor=none;align=left;verticalAlign=top;spacingLeft=4;spacingRight=4;overflow=hidden;rotatable=0;points=[[0,0.5],[1,0.5]];portConstraint=eastwest;" vertex="1" parent="2HssygnoRWeI-F0pAfdb-28">
          <mxGeometry y="52" width="190" height="26" as="geometry" />
        </mxCell>
        <mxCell id="2HssygnoRWeI-F0pAfdb-31" value="+ committe_lead_id: int" style="text;strokeColor=none;fillColor=none;align=left;verticalAlign=top;spacingLeft=4;spacingRight=4;overflow=hidden;rotatable=0;points=[[0,0.5],[1,0.5]];portConstraint=eastwest;" vertex="1" parent="2HssygnoRWeI-F0pAfdb-28">
          <mxGeometry y="78" width="190" height="26" as="geometry" />
        </mxCell>
        <mxCell id="2HssygnoRWeI-F0pAfdb-32" value="+ committe_lead_name: string" style="text;strokeColor=none;fillColor=none;align=left;verticalAlign=top;spacingLeft=4;spacingRight=4;overflow=hidden;rotatable=0;points=[[0,0.5],[1,0.5]];portConstraint=eastwest;" vertex="1" parent="2HssygnoRWeI-F0pAfdb-28">
          <mxGeometry y="104" width="190" height="26" as="geometry" />
        </mxCell>
        <mxCell id="2HssygnoRWeI-F0pAfdb-33" value="+ participant_id_1: int" style="text;strokeColor=none;fillColor=none;align=left;verticalAlign=top;spacingLeft=4;spacingRight=4;overflow=hidden;rotatable=0;points=[[0,0.5],[1,0.5]];portConstraint=eastwest;" vertex="1" parent="2HssygnoRWeI-F0pAfdb-28">
          <mxGeometry y="130" width="190" height="26" as="geometry" />
        </mxCell>
        <mxCell id="2HssygnoRWeI-F0pAfdb-34" value="+ participant_name_1: int" style="text;strokeColor=none;fillColor=none;align=left;verticalAlign=top;spacingLeft=4;spacingRight=4;overflow=hidden;rotatable=0;points=[[0,0.5],[1,0.5]];portConstraint=eastwest;" vertex="1" parent="2HssygnoRWeI-F0pAfdb-28">
          <mxGeometry y="156" width="190" height="26" as="geometry" />
        </mxCell>
        <mxCell id="2HssygnoRWeI-F0pAfdb-35" value="+ participant_id_2: int" style="text;strokeColor=none;fillColor=none;align=left;verticalAlign=top;spacingLeft=4;spacingRight=4;overflow=hidden;rotatable=0;points=[[0,0.5],[1,0.5]];portConstraint=eastwest;" vertex="1" parent="2HssygnoRWeI-F0pAfdb-28">
          <mxGeometry y="182" width="190" height="26" as="geometry" />
        </mxCell>
        <mxCell id="2HssygnoRWeI-F0pAfdb-36" value="+ participant_name_2: int" style="text;strokeColor=none;fillColor=none;align=left;verticalAlign=top;spacingLeft=4;spacingRight=4;overflow=hidden;rotatable=0;points=[[0,0.5],[1,0.5]];portConstraint=eastwest;" vertex="1" parent="2HssygnoRWeI-F0pAfdb-28">
          <mxGeometry y="208" width="190" height="26" as="geometry" />
        </mxCell>
        <mxCell id="2HssygnoRWeI-F0pAfdb-37" value="+ participant_id_3: int" style="text;strokeColor=none;fillColor=none;align=left;verticalAlign=top;spacingLeft=4;spacingRight=4;overflow=hidden;rotatable=0;points=[[0,0.5],[1,0.5]];portConstraint=eastwest;" vertex="1" parent="2HssygnoRWeI-F0pAfdb-28">
          <mxGeometry y="234" width="190" height="26" as="geometry" />
        </mxCell>
        <mxCell id="2HssygnoRWeI-F0pAfdb-38" value="+ participant_name_3: int" style="text;strokeColor=none;fillColor=none;align=left;verticalAlign=top;spacingLeft=4;spacingRight=4;overflow=hidden;rotatable=0;points=[[0,0.5],[1,0.5]];portConstraint=eastwest;" vertex="1" parent="2HssygnoRWeI-F0pAfdb-28">
          <mxGeometry y="260" width="190" height="26" as="geometry" />
        </mxCell>
        <mxCell id="2HssygnoRWeI-F0pAfdb-39" value="" style="line;strokeWidth=1;fillColor=none;align=left;verticalAlign=middle;spacingTop=-1;spacingLeft=3;spacingRight=3;rotatable=0;labelPosition=right;points=[];portConstraint=eastwest;" vertex="1" parent="2HssygnoRWeI-F0pAfdb-28">
          <mxGeometry y="286" width="190" height="8" as="geometry" />
        </mxCell>
        <mxCell id="2HssygnoRWeI-F0pAfdb-40" value="+ get_team()" style="text;strokeColor=none;fillColor=none;align=left;verticalAlign=top;spacingLeft=4;spacingRight=4;overflow=hidden;rotatable=0;points=[[0,0.5],[1,0.5]];portConstraint=eastwest;" vertex="1" parent="2HssygnoRWeI-F0pAfdb-28">
          <mxGeometry y="294" width="190" height="26" as="geometry" />
        </mxCell>
        <mxCell id="2HssygnoRWeI-F0pAfdb-41" value="+ add_team()" style="text;strokeColor=none;fillColor=none;align=left;verticalAlign=top;spacingLeft=4;spacingRight=4;overflow=hidden;rotatable=0;points=[[0,0.5],[1,0.5]];portConstraint=eastwest;" vertex="1" parent="2HssygnoRWeI-F0pAfdb-28">
          <mxGeometry y="320" width="190" height="26" as="geometry" />
        </mxCell>
        <mxCell id="2HssygnoRWeI-F0pAfdb-42" value="+ edit_team()" style="text;strokeColor=none;fillColor=none;align=left;verticalAlign=top;spacingLeft=4;spacingRight=4;overflow=hidden;rotatable=0;points=[[0,0.5],[1,0.5]];portConstraint=eastwest;" vertex="1" parent="2HssygnoRWeI-F0pAfdb-28">
          <mxGeometry y="346" width="190" height="26" as="geometry" />
        </mxCell>
        <mxCell id="2HssygnoRWeI-F0pAfdb-43" value="+ delete_team()" style="text;strokeColor=none;fillColor=none;align=left;verticalAlign=top;spacingLeft=4;spacingRight=4;overflow=hidden;rotatable=0;points=[[0,0.5],[1,0.5]];portConstraint=eastwest;" vertex="1" parent="2HssygnoRWeI-F0pAfdb-28">
          <mxGeometry y="372" width="190" height="26" as="geometry" />
        </mxCell>
        <mxCell id="sXOahXgRe8IfITq8cZGe-4" value="+ set_session()" style="text;strokeColor=none;fillColor=none;align=left;verticalAlign=top;spacingLeft=4;spacingRight=4;overflow=hidden;rotatable=0;points=[[0,0.5],[1,0.5]];portConstraint=eastwest;" vertex="1" parent="2HssygnoRWeI-F0pAfdb-28">
          <mxGeometry y="398" width="190" height="26" as="geometry" />
        </mxCell>
        <mxCell id="2HssygnoRWeI-F0pAfdb-56" style="edgeStyle=orthogonalEdgeStyle;rounded=0;orthogonalLoop=1;jettySize=auto;html=1;" edge="1" parent="2HssygnoRWeI-F0pAfdb-1" source="2HssygnoRWeI-F0pAfdb-57" target="2HssygnoRWeI-F0pAfdb-80">
          <mxGeometry relative="1" as="geometry">
            <mxPoint x="575" y="240" as="targetPoint" />
            <Array as="points">
              <mxPoint x="975" y="266" />
              <mxPoint x="575" y="266" />
            </Array>
          </mxGeometry>
        </mxCell>
        <mxCell id="2HssygnoRWeI-F0pAfdb-57" value="Event" style="swimlane;fontStyle=1;align=center;verticalAlign=top;childLayout=stackLayout;horizontal=1;startSize=26;horizontalStack=0;resizeParent=1;resizeParentMax=0;resizeLast=0;collapsible=1;marginBottom=0;" vertex="1" parent="2HssygnoRWeI-F0pAfdb-1">
          <mxGeometry x="880" y="276" width="190" height="324" as="geometry" />
        </mxCell>
        <mxCell id="2HssygnoRWeI-F0pAfdb-58" value="+ event_id: int" style="text;strokeColor=none;fillColor=none;align=left;verticalAlign=top;spacingLeft=4;spacingRight=4;overflow=hidden;rotatable=0;points=[[0,0.5],[1,0.5]];portConstraint=eastwest;" vertex="1" parent="2HssygnoRWeI-F0pAfdb-57">
          <mxGeometry y="26" width="190" height="26" as="geometry" />
        </mxCell>
        <mxCell id="2HssygnoRWeI-F0pAfdb-59" value="+ event_status_code: int" style="text;strokeColor=none;fillColor=none;align=left;verticalAlign=top;spacingLeft=4;spacingRight=4;overflow=hidden;rotatable=0;points=[[0,0.5],[1,0.5]];portConstraint=eastwest;" vertex="1" parent="2HssygnoRWeI-F0pAfdb-57">
          <mxGeometry y="52" width="190" height="26" as="geometry" />
        </mxCell>
        <mxCell id="2HssygnoRWeI-F0pAfdb-60" value="+ event_status_name: string" style="text;strokeColor=none;fillColor=none;align=left;verticalAlign=top;spacingLeft=4;spacingRight=4;overflow=hidden;rotatable=0;points=[[0,0.5],[1,0.5]];portConstraint=eastwest;" vertex="1" parent="2HssygnoRWeI-F0pAfdb-57">
          <mxGeometry y="78" width="190" height="30" as="geometry" />
        </mxCell>
        <mxCell id="2HssygnoRWeI-F0pAfdb-61" value="+ event_type_code: int" style="text;strokeColor=none;fillColor=none;align=left;verticalAlign=top;spacingLeft=4;spacingRight=4;overflow=hidden;rotatable=0;points=[[0,0.5],[1,0.5]];portConstraint=eastwest;" vertex="1" parent="2HssygnoRWeI-F0pAfdb-57">
          <mxGeometry y="108" width="190" height="26" as="geometry" />
        </mxCell>
        <mxCell id="2HssygnoRWeI-F0pAfdb-62" value="+ event_type_description: string" style="text;strokeColor=none;fillColor=none;align=left;verticalAlign=top;spacingLeft=4;spacingRight=4;overflow=hidden;rotatable=0;points=[[0,0.5],[1,0.5]];portConstraint=eastwest;" vertex="1" parent="2HssygnoRWeI-F0pAfdb-57">
          <mxGeometry y="134" width="190" height="26" as="geometry" />
        </mxCell>
        <mxCell id="2HssygnoRWeI-F0pAfdb-63" value="+ venue_id: int" style="text;strokeColor=none;fillColor=none;align=left;verticalAlign=top;spacingLeft=4;spacingRight=4;overflow=hidden;rotatable=0;points=[[0,0.5],[1,0.5]];portConstraint=eastwest;" vertex="1" parent="2HssygnoRWeI-F0pAfdb-57">
          <mxGeometry y="160" width="190" height="26" as="geometry" />
        </mxCell>
        <mxCell id="2HssygnoRWeI-F0pAfdb-64" value="" style="line;strokeWidth=1;fillColor=none;align=left;verticalAlign=middle;spacingTop=-1;spacingLeft=3;spacingRight=3;rotatable=0;labelPosition=right;points=[];portConstraint=eastwest;" vertex="1" parent="2HssygnoRWeI-F0pAfdb-57">
          <mxGeometry y="186" width="190" height="8" as="geometry" />
        </mxCell>
        <mxCell id="2HssygnoRWeI-F0pAfdb-65" value="+ add_event()" style="text;strokeColor=none;fillColor=none;align=left;verticalAlign=top;spacingLeft=4;spacingRight=4;overflow=hidden;rotatable=0;points=[[0,0.5],[1,0.5]];portConstraint=eastwest;" vertex="1" parent="2HssygnoRWeI-F0pAfdb-57">
          <mxGeometry y="194" width="190" height="26" as="geometry" />
        </mxCell>
        <mxCell id="2HssygnoRWeI-F0pAfdb-66" value="+ edit_event()" style="text;strokeColor=none;fillColor=none;align=left;verticalAlign=top;spacingLeft=4;spacingRight=4;overflow=hidden;rotatable=0;points=[[0,0.5],[1,0.5]];portConstraint=eastwest;" vertex="1" parent="2HssygnoRWeI-F0pAfdb-57">
          <mxGeometry y="220" width="190" height="26" as="geometry" />
        </mxCell>
        <mxCell id="2HssygnoRWeI-F0pAfdb-67" value="+ delete_event()" style="text;strokeColor=none;fillColor=none;align=left;verticalAlign=top;spacingLeft=4;spacingRight=4;overflow=hidden;rotatable=0;points=[[0,0.5],[1,0.5]];portConstraint=eastwest;" vertex="1" parent="2HssygnoRWeI-F0pAfdb-57">
          <mxGeometry y="246" width="190" height="26" as="geometry" />
        </mxCell>
        <mxCell id="2HssygnoRWeI-F0pAfdb-68" value="+ get_event()" style="text;strokeColor=none;fillColor=none;align=left;verticalAlign=top;spacingLeft=4;spacingRight=4;overflow=hidden;rotatable=0;points=[[0,0.5],[1,0.5]];portConstraint=eastwest;" vertex="1" parent="2HssygnoRWeI-F0pAfdb-57">
          <mxGeometry y="272" width="190" height="26" as="geometry" />
        </mxCell>
        <mxCell id="sXOahXgRe8IfITq8cZGe-0" value="+ set_session()" style="text;strokeColor=none;fillColor=none;align=left;verticalAlign=top;spacingLeft=4;spacingRight=4;overflow=hidden;rotatable=0;points=[[0,0.5],[1,0.5]];portConstraint=eastwest;" vertex="1" parent="2HssygnoRWeI-F0pAfdb-57">
          <mxGeometry y="298" width="190" height="26" as="geometry" />
        </mxCell>
        <mxCell id="2HssygnoRWeI-F0pAfdb-69" style="edgeStyle=orthogonalEdgeStyle;rounded=0;orthogonalLoop=1;jettySize=auto;html=1;" edge="1" parent="2HssygnoRWeI-F0pAfdb-1" source="2HssygnoRWeI-F0pAfdb-70" target="2HssygnoRWeI-F0pAfdb-80">
          <mxGeometry relative="1" as="geometry">
            <mxPoint x="575" y="240" as="targetPoint" />
            <Array as="points">
              <mxPoint x="705" y="266" />
              <mxPoint x="575" y="266" />
            </Array>
          </mxGeometry>
        </mxCell>
        <mxCell id="2HssygnoRWeI-F0pAfdb-70" value="Attendance" style="swimlane;fontStyle=1;align=center;verticalAlign=top;childLayout=stackLayout;horizontal=1;startSize=26;horizontalStack=0;resizeParent=1;resizeParentMax=0;resizeLast=0;collapsible=1;marginBottom=0;" vertex="1" parent="2HssygnoRWeI-F0pAfdb-1">
          <mxGeometry x="610" y="276" width="190" height="272" as="geometry" />
        </mxCell>
        <mxCell id="2HssygnoRWeI-F0pAfdb-71" value="+ attendance_id: int" style="text;strokeColor=none;fillColor=none;align=left;verticalAlign=top;spacingLeft=4;spacingRight=4;overflow=hidden;rotatable=0;points=[[0,0.5],[1,0.5]];portConstraint=eastwest;" vertex="1" parent="2HssygnoRWeI-F0pAfdb-70">
          <mxGeometry y="26" width="190" height="26" as="geometry" />
        </mxCell>
        <mxCell id="2HssygnoRWeI-F0pAfdb-72" value="+ attendance_status_code: int" style="text;strokeColor=none;fillColor=none;align=left;verticalAlign=top;spacingLeft=4;spacingRight=4;overflow=hidden;rotatable=0;points=[[0,0.5],[1,0.5]];portConstraint=eastwest;" vertex="1" parent="2HssygnoRWeI-F0pAfdb-70">
          <mxGeometry y="52" width="190" height="26" as="geometry" />
        </mxCell>
        <mxCell id="2HssygnoRWeI-F0pAfdb-73" value="+ attendance_status_name" style="text;strokeColor=none;fillColor=none;align=left;verticalAlign=top;spacingLeft=4;spacingRight=4;overflow=hidden;rotatable=0;points=[[0,0.5],[1,0.5]];portConstraint=eastwest;" vertex="1" parent="2HssygnoRWeI-F0pAfdb-70">
          <mxGeometry y="78" width="190" height="30" as="geometry" />
        </mxCell>
        <mxCell id="2HssygnoRWeI-F0pAfdb-74" value="+ feedback: string" style="text;strokeColor=none;fillColor=none;align=left;verticalAlign=top;spacingLeft=4;spacingRight=4;overflow=hidden;rotatable=0;points=[[0,0.5],[1,0.5]];portConstraint=eastwest;" vertex="1" parent="2HssygnoRWeI-F0pAfdb-70">
          <mxGeometry y="108" width="190" height="26" as="geometry" />
        </mxCell>
        <mxCell id="2HssygnoRWeI-F0pAfdb-75" value="" style="line;strokeWidth=1;fillColor=none;align=left;verticalAlign=middle;spacingTop=-1;spacingLeft=3;spacingRight=3;rotatable=0;labelPosition=right;points=[];portConstraint=eastwest;" vertex="1" parent="2HssygnoRWeI-F0pAfdb-70">
          <mxGeometry y="134" width="190" height="8" as="geometry" />
        </mxCell>
        <mxCell id="2HssygnoRWeI-F0pAfdb-76" value="+ add_attendance()" style="text;strokeColor=none;fillColor=none;align=left;verticalAlign=top;spacingLeft=4;spacingRight=4;overflow=hidden;rotatable=0;points=[[0,0.5],[1,0.5]];portConstraint=eastwest;" vertex="1" parent="2HssygnoRWeI-F0pAfdb-70">
          <mxGeometry y="142" width="190" height="26" as="geometry" />
        </mxCell>
        <mxCell id="2HssygnoRWeI-F0pAfdb-77" value="+ edit_attendance()" style="text;strokeColor=none;fillColor=none;align=left;verticalAlign=top;spacingLeft=4;spacingRight=4;overflow=hidden;rotatable=0;points=[[0,0.5],[1,0.5]];portConstraint=eastwest;" vertex="1" parent="2HssygnoRWeI-F0pAfdb-70">
          <mxGeometry y="168" width="190" height="26" as="geometry" />
        </mxCell>
        <mxCell id="2HssygnoRWeI-F0pAfdb-78" value="+ delete_attendance()" style="text;strokeColor=none;fillColor=none;align=left;verticalAlign=top;spacingLeft=4;spacingRight=4;overflow=hidden;rotatable=0;points=[[0,0.5],[1,0.5]];portConstraint=eastwest;" vertex="1" parent="2HssygnoRWeI-F0pAfdb-70">
          <mxGeometry y="194" width="190" height="26" as="geometry" />
        </mxCell>
        <mxCell id="2HssygnoRWeI-F0pAfdb-79" value="+ get_attendance()" style="text;strokeColor=none;fillColor=none;align=left;verticalAlign=top;spacingLeft=4;spacingRight=4;overflow=hidden;rotatable=0;points=[[0,0.5],[1,0.5]];portConstraint=eastwest;" vertex="1" parent="2HssygnoRWeI-F0pAfdb-70">
          <mxGeometry y="220" width="190" height="26" as="geometry" />
        </mxCell>
        <mxCell id="sXOahXgRe8IfITq8cZGe-3" value="+ set_session()" style="text;strokeColor=none;fillColor=none;align=left;verticalAlign=top;spacingLeft=4;spacingRight=4;overflow=hidden;rotatable=0;points=[[0,0.5],[1,0.5]];portConstraint=eastwest;" vertex="1" parent="2HssygnoRWeI-F0pAfdb-70">
          <mxGeometry y="246" width="190" height="26" as="geometry" />
        </mxCell>
        <mxCell id="2HssygnoRWeI-F0pAfdb-80" value="Dbh" style="swimlane;fontStyle=1;align=center;verticalAlign=top;childLayout=stackLayout;horizontal=1;startSize=26;horizontalStack=0;resizeParent=1;resizeParentMax=0;resizeLast=0;collapsible=1;marginBottom=0;" vertex="1" parent="2HssygnoRWeI-F0pAfdb-1">
          <mxGeometry x="480" y="30" width="190" height="194" as="geometry" />
        </mxCell>
        <mxCell id="2HssygnoRWeI-F0pAfdb-81" value="- servername: string" style="text;strokeColor=none;fillColor=none;align=left;verticalAlign=top;spacingLeft=4;spacingRight=4;overflow=hidden;rotatable=0;points=[[0,0.5],[1,0.5]];portConstraint=eastwest;" vertex="1" parent="2HssygnoRWeI-F0pAfdb-80">
          <mxGeometry y="26" width="190" height="26" as="geometry" />
        </mxCell>
        <mxCell id="2HssygnoRWeI-F0pAfdb-82" value="- username: string" style="text;strokeColor=none;fillColor=none;align=left;verticalAlign=top;spacingLeft=4;spacingRight=4;overflow=hidden;rotatable=0;points=[[0,0.5],[1,0.5]];portConstraint=eastwest;" vertex="1" parent="2HssygnoRWeI-F0pAfdb-80">
          <mxGeometry y="52" width="190" height="26" as="geometry" />
        </mxCell>
        <mxCell id="2HssygnoRWeI-F0pAfdb-83" value="- password: string" style="text;strokeColor=none;fillColor=none;align=left;verticalAlign=top;spacingLeft=4;spacingRight=4;overflow=hidden;rotatable=0;points=[[0,0.5],[1,0.5]];portConstraint=eastwest;" vertex="1" parent="2HssygnoRWeI-F0pAfdb-80">
          <mxGeometry y="78" width="190" height="30" as="geometry" />
        </mxCell>
        <mxCell id="2HssygnoRWeI-F0pAfdb-84" value="- dbname: string" style="text;strokeColor=none;fillColor=none;align=left;verticalAlign=top;spacingLeft=4;spacingRight=4;overflow=hidden;rotatable=0;points=[[0,0.5],[1,0.5]];portConstraint=eastwest;" vertex="1" parent="2HssygnoRWeI-F0pAfdb-80">
          <mxGeometry y="108" width="190" height="26" as="geometry" />
        </mxCell>
        <mxCell id="2HssygnoRWeI-F0pAfdb-85" value="- charset: string" style="text;strokeColor=none;fillColor=none;align=left;verticalAlign=top;spacingLeft=4;spacingRight=4;overflow=hidden;rotatable=0;points=[[0,0.5],[1,0.5]];portConstraint=eastwest;" vertex="1" parent="2HssygnoRWeI-F0pAfdb-80">
          <mxGeometry y="134" width="190" height="26" as="geometry" />
        </mxCell>
        <mxCell id="2HssygnoRWeI-F0pAfdb-86" value="" style="line;strokeWidth=1;fillColor=none;align=left;verticalAlign=middle;spacingTop=-1;spacingLeft=3;spacingRight=3;rotatable=0;labelPosition=right;points=[];portConstraint=eastwest;" vertex="1" parent="2HssygnoRWeI-F0pAfdb-80">
          <mxGeometry y="160" width="190" height="8" as="geometry" />
        </mxCell>
        <mxCell id="2HssygnoRWeI-F0pAfdb-87" value="+ connect()" style="text;strokeColor=none;fillColor=none;align=left;verticalAlign=top;spacingLeft=4;spacingRight=4;overflow=hidden;rotatable=0;points=[[0,0.5],[1,0.5]];portConstraint=eastwest;" vertex="1" parent="2HssygnoRWeI-F0pAfdb-80">
          <mxGeometry y="168" width="190" height="26" as="geometry" />
        </mxCell>
      </root>
    </mxGraphModel>
  </diagram>
  <diagram id="DAIJuBeWWKFV5FO3GZYB" name="Activity">
    <mxGraphModel dx="1662" dy="794" grid="1" gridSize="10" guides="1" tooltips="1" connect="1" arrows="1" fold="1" page="1" pageScale="1" pageWidth="1169" pageHeight="827" math="0" shadow="0">
      <root>
        <mxCell id="S6EH26gAtXmJUbK0J6dk-0" />
        <mxCell id="S6EH26gAtXmJUbK0J6dk-1" parent="S6EH26gAtXmJUbK0J6dk-0" />
      </root>
    </mxGraphModel>
  </diagram>
</mxfile>
